<svg width="17" height="17" viewBox="0 0 17 17" fill="none" xmlns="http://www.w3.org/2000/svg">
<path d="M0.929688 8.5C0.929688 9.99726 1.37368 11.4609 2.20552 12.7058C3.03735 13.9508 4.21967 14.9211 5.60297 15.4941C6.98626 16.067 8.5084 16.2169 9.9769 15.9248C11.4454 15.6327 12.7943 14.9117 13.853 13.853C14.9117 12.7943 15.6327 11.4454 15.9249 9.97689C16.217 8.50839 16.067 6.98626 15.4941 5.60296C14.9211 4.21967 13.9508 3.03735 12.7058 2.20551C11.4609 1.37367 9.99727 0.929684 8.5 0.929684C6.49295 0.932041 4.56878 1.73038 3.14958 3.14958C1.73039 4.56878 0.932045 6.49295 0.929688 8.5ZM15.1797 8.5C15.1797 9.82111 14.7879 11.1126 14.054 12.211C13.32 13.3095 12.2768 14.1657 11.0562 14.6712C9.83565 15.1768 8.49259 15.3091 7.19686 15.0513C5.90112 14.7936 4.71092 14.1574 3.77675 13.2232C2.84258 12.2891 2.2064 11.0989 1.94866 9.80314C1.69092 8.50741 1.8232 7.16434 2.32877 5.94379C2.83434 4.72324 3.6905 3.68001 4.78896 2.94604C5.88743 2.21207 7.17888 1.82031 8.5 1.82031C10.271 1.82227 11.9688 2.52666 13.2211 3.77891C14.4733 5.03117 15.1777 6.72904 15.1797 8.5ZM8.77906 5.81031C8.86256 5.72692 8.97574 5.68008 9.09375 5.68008C9.21176 5.68008 9.32494 5.72692 9.40844 5.81031L11.7834 8.18531C11.8668 8.26881 11.9137 8.38199 11.9137 8.5C11.9137 8.618 11.8668 8.73119 11.7834 8.81468L9.40844 11.1897C9.32402 11.2683 9.21237 11.3112 9.097 11.3091C8.98164 11.3071 8.87156 11.2604 8.78997 11.1788C8.70839 11.0972 8.66165 10.9871 8.65962 10.8717C8.65758 10.7564 8.7004 10.6447 8.77906 10.5603L10.3933 8.94531L5.53125 8.94531C5.41315 8.94531 5.29988 8.89839 5.21637 8.81488C5.13285 8.73137 5.08594 8.6181 5.08594 8.5C5.08594 8.38189 5.13285 8.26863 5.21637 8.18511C5.29988 8.1016 5.41315 8.05468 5.53125 8.05468L10.3933 8.05468L8.77906 6.43968C8.69567 6.35619 8.64883 6.243 8.64883 6.125C8.64883 6.00699 8.69567 5.8938 8.77906 5.81031Z" fill="white"/>
</svg>
