<svg width="65" height="65" viewBox="0 0 65 65" fill="none" xmlns="http://www.w3.org/2000/svg">
<path d="M11.4258 23.1055C7.22478 23.1055 3.80859 19.6893 3.80859 15.4883C3.80859 11.2873 7.22478 7.87109 11.4258 7.87109C15.6268 7.87109 19.043 11.2873 19.043 15.4883C19.043 19.6893 15.6268 23.1055 11.4258 23.1055ZM53.5742 23.1055C49.3732 23.1055 45.957 19.6893 45.957 15.4883C45.957 11.2873 49.3732 7.87109 53.5742 7.87109C57.7752 7.87109 61.1914 11.2873 61.1914 15.4883C61.1914 19.6893 57.7752 23.1055 53.5742 23.1055ZM32.5 19.043C27.2501 19.043 22.9785 14.7714 22.9785 9.52148C22.9785 4.27159 27.2501 0 32.5 0C37.7499 0 42.0215 4.27159 42.0215 9.52148C42.0215 14.7714 37.7499 19.043 32.5 19.043ZM34.4043 19.2354V32.373C34.4043 33.4256 33.5526 34.2773 32.5 34.2773C31.4474 34.2773 30.5957 33.4256 30.5957 32.373V19.2354C24.1528 20.1694 19.1699 25.6756 19.1699 32.373V43.7988C19.1699 44.8514 20.0217 45.7031 21.0742 45.7031H25.3404L26.7946 63.2557C26.8764 64.2412 27.7021 65 28.6914 65H36.3086C37.2979 65 38.1236 64.2412 38.2054 63.2557L39.6596 45.7031H43.9258C44.9783 45.7031 45.8301 44.8514 45.8301 43.7988V32.373C45.8301 25.6756 40.8472 20.1694 34.4043 19.2354ZM15.2344 44.0527V32.627C15.2344 29.7725 16.0024 27.12 17.2416 24.7505C15.5317 23.7298 13.5578 23.1055 11.4258 23.1055C5.12522 23.1055 0 28.2307 0 34.5312V44.0527C0 45.1053 0.851728 45.957 1.9043 45.957H3.98899L5.72216 63.2854C5.8189 64.258 6.63901 65 7.61719 65H15.2344C16.2125 65 17.0327 64.258 17.1294 63.2854L18.5369 49.2135C16.5926 48.3011 15.2344 46.3388 15.2344 44.0527ZM65 34.5312C65 28.2307 59.8748 23.1055 53.5742 23.1055C51.4422 23.1055 49.4683 23.7298 47.7584 24.7505C48.9976 27.12 49.7656 29.7725 49.7656 32.627V44.0527C49.7656 46.3388 48.4074 48.3011 46.4631 49.2135L47.8706 63.2854C47.9673 64.258 48.7875 65 49.7656 65H57.3828C58.361 65 59.1811 64.258 59.2778 63.2854L61.011 45.957H63.0957C64.1483 45.957 65 45.1053 65 44.0527V34.5312Z" fill="#8C8C8C"/>
</svg>
