<svg width="14" height="11" viewBox="0 0 14 11" fill="none" xmlns="http://www.w3.org/2000/svg">
<path d="M10.0792 4.61384H13.5325C13.6259 4.61384 13.6881 4.66051 13.7192 4.75384C13.7503 4.84717 13.7503 4.92495 13.7192 4.98717L11.9925 7.04051C11.9303 7.10273 11.8681 7.13384 11.8059 7.13384C11.7436 7.13384 11.697 7.10273 11.6659 7.04051L9.93919 4.98717C9.87697 4.92495 9.86141 4.84717 9.89253 4.75384C9.92364 4.66051 9.98586 4.61384 10.0792 4.61384ZM0.465859 6.38718H3.91919C4.01253 6.38718 4.07475 6.34051 4.10586 6.24717C4.13697 6.15384 4.12141 6.07606 4.05919 6.01384L2.33253 3.96051C2.30141 3.89829 2.25475 3.86717 2.19253 3.86717C2.1303 3.86717 2.06808 3.89829 2.00586 3.96051L0.279193 6.01384C0.248082 6.07606 0.248082 6.15384 0.279193 6.24717C0.310304 6.34051 0.372526 6.38718 0.465859 6.38718ZM6.99919 1.11384C6.34586 1.11384 5.72364 1.25384 5.13253 1.53384C4.54141 1.81384 4.04364 2.20273 3.63919 2.70051C3.51475 2.85606 3.36697 2.91829 3.19586 2.88717C3.02475 2.85606 2.91586 2.76273 2.86919 2.60717C2.82253 2.45162 2.84586 2.29606 2.93919 2.14051C3.59253 1.36273 4.40919 0.818286 5.38919 0.507174C6.36919 0.196063 7.35697 0.17273 8.35253 0.437175C9.34808 0.701619 10.1881 1.21495 10.8725 1.97717C11.557 2.7394 11.9925 3.61829 12.1792 4.61384H11.2925C11.0747 3.61829 10.5614 2.78606 9.75253 2.11717C8.94364 1.44829 8.02586 1.11384 6.99919 1.11384ZM2.70586 6.38718C2.89253 7.19606 3.27364 7.90384 3.84919 8.51051C4.42475 9.11717 5.12475 9.52162 5.94919 9.72384C6.77364 9.92606 7.58253 9.90273 8.37586 9.65384C9.16919 9.40495 9.8303 8.95384 10.3592 8.30051C10.4836 8.14495 10.6314 8.08273 10.8025 8.11384C10.9736 8.14495 11.0825 8.23829 11.1292 8.39384C11.1759 8.5494 11.1525 8.70495 11.0592 8.86051C10.4059 9.63829 9.58919 10.1827 8.60919 10.4938C7.62919 10.805 6.64142 10.8283 5.64586 10.5638C4.6503 10.2994 3.8103 9.78606 3.12586 9.02384C2.44141 8.26162 2.00586 7.38273 1.81919 6.38718H2.70586Z" fill="white"/>
</svg>
