<svg width="9" height="10" viewBox="0 0 9 10" fill="none" xmlns="http://www.w3.org/2000/svg">
<path d="M4.64213 0.0219727C7.02322 0.0219727 8.95335 1.95211 8.95335 4.33319C8.95335 6.71428 7.02322 8.64442 4.64213 8.64442C2.26104 8.64442 0.33091 6.71428 0.33091 4.33319C0.33091 1.95211 2.26104 0.0219727 4.64213 0.0219727ZM4.64213 0.884217C3.72741 0.884217 2.85015 1.24759 2.20334 1.8944C1.55653 2.54121 1.19315 3.41847 1.19315 4.33319C1.19315 5.24792 1.55653 6.12518 2.20334 6.77199C2.85015 7.4188 3.72741 7.78217 4.64213 7.78217C5.55686 7.78217 6.43412 7.4188 7.08093 6.77199C7.72774 6.12518 8.09111 5.24792 8.09111 4.33319C8.09111 3.41847 7.72774 2.54121 7.08093 1.8944C6.43412 1.24759 5.55686 0.884217 4.64213 0.884217ZM4.64213 1.74646C4.74773 1.74648 4.84965 1.78524 4.92856 1.85541C5.00747 1.92558 5.05788 2.02227 5.07024 2.12714L5.07325 2.17758V4.15471L6.2403 5.32176C6.31762 5.39934 6.36251 5.50345 6.36586 5.61293C6.3692 5.72241 6.33075 5.82907 6.2583 5.91122C6.18586 5.99338 6.08486 6.04488 5.97582 6.05527C5.86678 6.06566 5.75787 6.03415 5.67122 5.96715L5.6307 5.93136L4.33733 4.638C4.27032 4.57094 4.22729 4.48366 4.21489 4.38967L4.21101 4.33319V2.17758C4.21101 2.06324 4.25643 1.95359 4.33728 1.87273C4.41813 1.79188 4.52779 1.74646 4.64213 1.74646Z" fill="#E22400"/>
</svg>
