<svg width="16" height="16" viewBox="0 0 16 16" fill="none" xmlns="http://www.w3.org/2000/svg">
<path d="M7.67101 1.60693C11.2016 1.60693 14.0634 4.46883 14.0634 7.99938C14.0634 11.5299 11.2016 14.3918 7.67101 14.3918C4.14046 14.3918 1.27856 11.5299 1.27856 7.99938C1.27856 4.46883 4.14046 1.60693 7.67101 1.60693ZM7.67101 2.88542C6.3147 2.88542 5.01395 3.42421 4.0549 4.38326C3.09584 5.34232 2.55705 6.64307 2.55705 7.99938C2.55705 9.35568 3.09584 10.6564 4.0549 11.6155C5.01395 12.5745 6.3147 13.1133 7.67101 13.1133C9.02731 13.1133 10.3281 12.5745 11.2871 11.6155C12.2462 10.6564 12.785 9.35568 12.785 7.99938C12.785 6.64307 12.2462 5.34232 11.2871 4.38326C10.3281 3.42421 9.02731 2.88542 7.67101 2.88542ZM7.67101 4.16391C7.82758 4.16393 7.9787 4.22141 8.0957 4.32546C8.21271 4.4295 8.28746 4.57287 8.30578 4.72836L8.31025 4.80315V7.73473L10.0407 9.46516C10.1553 9.5802 10.2219 9.73456 10.2269 9.8969C10.2318 10.0592 10.1748 10.2174 10.0674 10.3392C9.95996 10.461 9.8102 10.5374 9.64853 10.5528C9.48685 10.5682 9.32537 10.5215 9.19688 10.4221L9.13679 10.3691L7.21906 8.45132C7.11971 8.35188 7.0559 8.22247 7.03752 8.08312L7.03176 7.99938V4.80315C7.03176 4.63362 7.09911 4.47102 7.21899 4.35114C7.33887 4.23126 7.50147 4.16391 7.67101 4.16391Z" fill="white"/>
</svg>
