<svg width="16" height="15" viewBox="0 0 16 15" fill="none" xmlns="http://www.w3.org/2000/svg">
<path d="M5.01333 6.99962C5.01333 7.28407 4.91556 7.52407 4.72 7.71962C4.52444 7.91518 4.28444 8.01296 4 8.01296C3.71556 8.01296 3.47556 7.91518 3.28 7.71962C3.08444 7.52407 2.98667 7.28407 2.98667 6.99962C2.98667 6.71518 3.08444 6.47518 3.28 6.27962C3.47556 6.08407 3.71556 5.98629 4 5.98629C4.28444 5.98629 4.52444 6.08407 4.72 6.27962C4.91556 6.47518 5.01333 6.71518 5.01333 6.99962ZM9.01333 6.99962C9.01333 7.28407 8.91556 7.52407 8.72 7.71962C8.52444 7.91518 8.28444 8.01296 8 8.01296C7.71556 8.01296 7.47556 7.91518 7.28 7.71962C7.08444 7.52407 6.98667 7.28407 6.98667 6.99962C6.98667 6.71518 7.08444 6.47518 7.28 6.27962C7.47556 6.08407 7.71556 5.98629 8 5.98629C8.28444 5.98629 8.52444 6.08407 8.72 6.27962C8.91556 6.47518 9.01333 6.71518 9.01333 6.99962ZM12 8.01296C12.2844 8.01296 12.5244 7.91518 12.72 7.71962C12.9156 7.52407 13.0133 7.28407 13.0133 6.99962C13.0133 6.71518 12.9156 6.47518 12.72 6.27962C12.5244 6.08407 12.2844 5.98629 12 5.98629C11.7156 5.98629 11.4756 6.08407 11.28 6.27962C11.0844 6.47518 10.9867 6.71518 10.9867 6.99962C10.9867 7.28407 11.0844 7.52407 11.28 7.71962C11.4756 7.91518 11.7156 8.01296 12 8.01296ZM2.18667 14.7863C3.60889 14.5018 4.76444 14.1463 5.65333 13.7196C6.43556 13.8974 7.21778 13.9863 8 13.9863C9.45778 13.9863 10.8 13.6752 12.0267 13.053C13.2533 12.4307 14.2222 11.5863 14.9333 10.5196C15.6444 9.45296 16 8.27962 16 6.99962C16 5.71962 15.6444 4.54629 14.9333 3.47962C14.2222 2.41296 13.2533 1.56851 12.0267 0.946289C10.8 0.324066 9.45778 0.0129557 8 0.0129557C6.54222 0.0129557 5.2 0.324066 3.97333 0.946289C2.74667 1.56851 1.77778 2.41296 1.06667 3.47962C0.355556 4.54629 0 5.71962 0 6.99962C0 7.85296 0.168889 8.67962 0.506667 9.47962C0.844444 10.2796 1.33333 10.9818 1.97333 11.5863C1.90222 12.4041 1.72444 13.1863 1.44 13.933L1.17333 14.573C1.13778 14.6441 1.15556 14.7241 1.22667 14.813C1.29778 14.9018 1.38667 14.9463 1.49333 14.9463L2.18667 14.7863ZM2.98667 11.693C2.98667 11.373 2.88 11.1063 2.66667 10.893C2.13333 10.3596 1.72444 9.75518 1.44 9.07962C1.15556 8.40407 1.01333 7.71073 1.01333 6.99962C1.01333 5.93296 1.31556 4.9374 1.92 4.01296C2.52444 3.08851 3.36 2.35073 4.42667 1.79962C5.49333 1.24851 6.68444 0.972956 8 0.972956C9.31556 0.972956 10.5067 1.24851 11.5733 1.79962C12.64 2.35073 13.4756 3.08851 14.08 4.01296C14.6844 4.9374 14.9867 5.93296 14.9867 6.99962C14.9867 8.06629 14.6844 9.06184 14.08 9.98629C13.4756 10.9107 12.64 11.6396 11.5733 12.173C10.5067 12.7063 9.31556 12.973 8 12.973C7.28889 13.0085 6.59556 12.9196 5.92 12.7063C5.67111 12.6707 5.44 12.7063 5.22667 12.813C4.51556 13.1685 3.62667 13.4707 2.56 13.7196C2.77333 13.0441 2.91556 12.3685 2.98667 11.693Z" fill="#5D5D66"/>
</svg>
