<svg width="22" height="22" viewBox="0 0 22 22" fill="none" xmlns="http://www.w3.org/2000/svg">
<rect width="21.3" height="21.3" fill="white"/>
<path d="M18.9705 10.6504C18.9705 10.9152 18.8653 11.1691 18.6781 11.3564C18.4908 11.5436 18.2369 11.6488 17.9721 11.6488H11.6486V17.9723C11.6486 18.2371 11.5435 18.491 11.3562 18.6783C11.169 18.8655 10.915 18.9707 10.6502 18.9707C10.3854 18.9707 10.1314 18.8655 9.94421 18.6783C9.75696 18.491 9.65177 18.2371 9.65177 17.9723V11.6488H3.32833C3.06353 11.6488 2.80957 11.5436 2.62233 11.3564C2.43509 11.1691 2.3299 10.9152 2.3299 10.6504C2.3299 10.3856 2.43509 10.1316 2.62233 9.94439C2.80957 9.75714 3.06353 9.65195 3.32833 9.65195H9.65177V3.32852C9.65177 3.06371 9.75696 2.80976 9.94421 2.62251C10.1314 2.43527 10.3854 2.33008 10.6502 2.33008C10.915 2.33008 11.169 2.43527 11.3562 2.62251C11.5435 2.80976 11.6486 3.06371 11.6486 3.32852V9.65195H17.9721C18.2369 9.65195 18.4908 9.75714 18.6781 9.94439C18.8653 10.1316 18.9705 10.3856 18.9705 10.6504Z" fill="#0C0C0C"/>
</svg>
