<svg width="14" height="16" viewBox="0 0 14 16" fill="none" xmlns="http://www.w3.org/2000/svg">
<path d="M4.57324 5.96272C4.71546 5.96272 4.83991 6.01605 4.94658 6.12272C5.05324 6.22939 5.10658 6.33605 5.10658 6.44272V12.4694C5.07102 12.6116 5.0088 12.7272 4.91991 12.8161C4.83102 12.9049 4.71546 12.9494 4.57324 12.9494C4.43102 12.9494 4.31546 12.9049 4.22658 12.8161C4.13769 12.7272 4.09324 12.6116 4.09324 12.4694V6.44272C4.09324 6.33605 4.13769 6.22939 4.22658 6.12272C4.31546 6.01605 4.43102 5.96272 4.57324 5.96272ZM7.07991 5.96272C7.22213 5.96272 7.33769 6.01605 7.42658 6.12272C7.51546 6.22939 7.55991 6.33605 7.55991 6.44272V12.4694C7.55991 12.6116 7.51546 12.7272 7.42658 12.8161C7.33769 12.9049 7.22213 12.9494 7.07991 12.9494C6.93769 12.9494 6.82213 12.9049 6.73324 12.8161C6.64435 12.7272 6.59991 12.6116 6.59991 12.4694V6.44272C6.59991 6.33605 6.64435 6.22939 6.73324 6.12272C6.82213 6.01605 6.93769 5.96272 7.07991 5.96272ZM10.0666 6.44272C10.0666 6.33605 10.0221 6.22939 9.93324 6.12272C9.84435 6.01605 9.7288 5.96272 9.58658 5.96272C9.44435 5.96272 9.31991 6.01605 9.21324 6.12272C9.10658 6.22939 9.05324 6.33605 9.05324 6.44272V12.4694C9.0888 12.6116 9.15102 12.7272 9.23991 12.8161C9.3288 12.9049 9.44435 12.9494 9.58658 12.9494C9.7288 12.9494 9.84435 12.9049 9.93324 12.8161C10.0221 12.7272 10.0666 12.6116 10.0666 12.4694V6.44272ZM13.5866 3.45605C13.5866 3.7405 13.4888 3.9805 13.2932 4.17605C13.0977 4.37161 12.8577 4.46939 12.5732 4.46939H12.0932V13.4827C12.0932 14.0161 11.8977 14.4783 11.5066 14.8694C11.1155 15.2605 10.6355 15.4561 10.0666 15.4561H4.09324C3.52435 15.4561 3.04435 15.2605 2.65324 14.8694C2.26213 14.4783 2.06658 14.0161 2.06658 13.4827V4.46939H1.58658C1.30213 4.46939 1.06213 4.37161 0.866576 4.17605C0.67102 3.9805 0.573242 3.7405 0.573242 3.45605V2.44272C0.573242 2.19383 0.67102 1.97161 0.866576 1.77605C1.06213 1.5805 1.30213 1.48272 1.58658 1.48272H5.10658C5.07102 1.19828 5.15102 0.958277 5.34658 0.762721C5.54213 0.567165 5.78213 0.469388 6.06658 0.469388H8.09324C8.37769 0.469388 8.61769 0.567165 8.81324 0.762721C9.0088 0.958277 9.10658 1.19828 9.10658 1.48272H12.5732C12.8577 1.48272 13.0977 1.5805 13.2932 1.77605C13.4888 1.97161 13.5866 2.19383 13.5866 2.44272V3.45605ZM3.18658 4.46939L3.07991 4.52272V13.4827C3.07991 13.7672 3.17769 13.9983 3.37324 14.1761C3.5688 14.3538 3.8088 14.4427 4.09324 14.4427H10.0666C10.351 14.4427 10.591 14.3538 10.7866 14.1761C10.9821 13.9983 11.0799 13.7672 11.0799 13.4827V4.52272L10.9732 4.46939H3.18658ZM1.58658 3.45605V2.44272H12.5732V3.45605H1.58658Z" fill="#DC3545"/>
</svg>
