<svg width="65" height="65" viewBox="0 0 65 65" fill="none" xmlns="http://www.w3.org/2000/svg">
<path d="M48.5469 29.0469L48.75 28.7757V19.1252L32.5 25.6252L16.25 19.1252V28.7757L16.4531 29.0469C16.6207 29.2703 20.7025 34.5313 32.5 34.5313C44.2975 34.5313 48.3793 29.2703 48.5469 29.0469ZM63.4766 61.9531H8.63281C7.15133 61.9531 5.73052 61.3646 4.68296 60.3171C3.63539 59.2695 3.04688 57.8487 3.04688 56.3672C3.04688 54.8857 3.63539 53.4649 4.68296 52.4173C5.73052 51.3698 7.15133 50.7813 8.63281 50.7813H63.4766C63.8806 50.7813 64.2681 50.6208 64.5538 50.3351C64.8395 50.0494 65 49.6619 65 49.2578C65 48.8538 64.8395 48.4663 64.5538 48.1806C64.2681 47.8949 63.8806 47.7344 63.4766 47.7344H8.63281C6.34325 47.7344 4.14746 48.6439 2.52849 50.2629C0.909526 51.8818 0 54.0776 0 56.3672C0 58.6568 0.909526 60.8526 2.52849 62.4715C4.14746 64.0905 6.34325 65 8.63281 65H63.4766C63.8806 65 64.2681 64.8395 64.5538 64.5538C64.8395 64.2681 65 63.8806 65 63.4766C65 63.0725 64.8395 62.685 64.5538 62.3993C64.2681 62.1136 63.8806 61.9531 63.4766 61.9531Z" fill="#8C8C8C"/>
<path d="M5.07812 56.3672C5.07812 56.834 5.17007 57.2962 5.34871 57.7275C5.52735 58.1588 5.78919 58.5506 6.11927 58.8807C6.44935 59.2108 6.84122 59.4727 7.27249 59.6513C7.70377 59.8299 8.166 59.9219 8.63281 59.9219H63.4766V52.8125H8.63281C7.69005 52.8125 6.7859 53.187 6.11927 53.8536C5.45264 54.5203 5.07813 55.4244 5.07812 56.3672Z" fill="#8C8C8C"/>
<path d="M53.8281 26.9141C55.2304 26.9141 56.3672 25.7773 56.3672 24.375C56.3672 22.9727 55.2304 21.8359 53.8281 21.8359C52.4258 21.8359 51.2891 22.9727 51.2891 24.375C51.2891 25.7773 52.4258 26.9141 53.8281 26.9141Z" fill="#8C8C8C"/>
<path d="M49.4149 16.6716L32.1381 10.0903L32.8612 8.19109L52.1987 15.5584L60.6244 12.1876L32.4997 0.9375L4.375 12.1876L32.4997 23.4377L49.4149 16.6716ZM52.8122 17.9665V19.9277C53.4794 19.7641 54.1762 19.7641 54.8434 19.9277V16.5659L52.1987 15.5584L49.4149 16.6716L52.8122 17.9665ZM9.14031 38.5938C9.14031 39.1325 9.35432 39.6492 9.73525 40.0301C10.1162 40.4111 10.6328 40.6251 11.1716 40.6251H48.3841L49.0605 36.5626H11.1716C10.6328 36.5626 10.1162 36.7766 9.73525 37.1575C9.35432 37.5384 9.14031 38.0551 9.14031 38.5938ZM56.8747 38.5938L55.2263 28.7037C54.3219 29.0262 53.3338 29.0262 52.4293 28.7037L50.7809 38.5938H56.8747Z" fill="#8C8C8C"/>
<path d="M11.1719 45.7031H55.3516C55.7556 45.7031 56.1431 45.5426 56.4288 45.2569C56.7145 44.9712 56.875 44.5837 56.875 44.1797C56.875 43.7756 56.7145 43.3882 56.4288 43.1025C56.1431 42.8168 55.7556 42.6562 55.3516 42.6562H11.1719C10.0944 42.6562 9.06112 42.2282 8.29925 41.4664C7.53739 40.7045 7.10938 39.6712 7.10938 38.5938C7.10938 37.5163 7.53739 36.483 8.29925 35.7211C9.06112 34.9593 10.0944 34.5312 11.1719 34.5312H21.0031C19.1692 33.8073 17.4716 32.777 15.9829 31.4844H11.1719C9.28635 31.4844 7.47805 32.2334 6.14479 33.5667C4.81152 34.8999 4.0625 36.7082 4.0625 38.5938C4.0625 40.4793 4.81152 42.2876 6.14479 43.6208C7.47805 44.9541 9.28635 45.7031 11.1719 45.7031ZM49.9078 31.4844H49.0181C47.5291 32.7772 45.8312 33.8075 43.9969 34.5312H49.4L49.9078 31.4844Z" fill="#8C8C8C"/>
</svg>
