<svg width="65" height="58" viewBox="0 0 65 58" fill="none" xmlns="http://www.w3.org/2000/svg">
<path d="M29.8615 4.59887V6.07512C31.8242 5.9364 32.8751 6.10255 32.9841 6.1211C33.2952 6.1741 33.5892 6.30545 33.8407 6.50377C34.0922 6.70208 34.2935 6.96138 34.4274 7.25922L37.1856 13.3944C37.5303 13.4773 37.8466 13.6574 38.1 13.9151C38.4328 14.2535 38.831 14.5184 39.2823 14.6333C40.1834 14.8625 41.0775 14.6012 41.7093 13.96C42.3615 13.2986 43.3563 13.1304 44.1249 13.6376C45.2239 14.3621 45.3418 15.8972 44.48 16.7967C43.264 18.0662 41.6468 18.7655 39.9265 18.7655C39.8162 18.7654 39.7059 18.7625 39.5958 18.7567L43.3037 27.005C43.4597 27.3516 43.6083 27.7017 43.7495 28.0551C47.9246 26.681 52.6734 27.7016 55.9916 31.1253C56.7336 31.8901 56.8158 33.1396 56.1225 33.9532C55.9406 34.1678 55.717 34.3396 55.4665 34.4571C55.2161 34.5746 54.9446 34.6351 54.67 34.6348C54.1737 34.6348 53.6768 34.4371 53.2983 34.0417C51.0493 31.6951 47.8205 30.9814 44.9739 31.8969C46.0535 36.3892 45.9816 41.0256 44.8673 45.373C45.395 45.5552 45.9291 45.7165 46.4686 45.8565C47.0983 46.0199 47.7568 46.0206 48.3868 45.8585C58.0903 43.3535 65.0004 34.2462 65.0004 23.6947V4.59887C65.0004 3.65326 64.4411 2.80556 63.593 2.47274C60.9206 1.42484 55.7556 0 47.4318 0C39.1071 0 33.9416 1.42537 31.2687 2.4734C30.4207 2.8057 29.8613 3.65339 29.8613 4.599L29.8615 4.59887ZM51.3131 13.9331C52.071 13.1422 53.2993 13.1422 54.0576 13.9331C54.2945 14.1818 54.5764 14.379 54.8868 14.5132C55.1973 14.6475 55.5302 14.7161 55.8662 14.7152C56.2023 14.7161 56.5353 14.6475 56.8458 14.5132C57.1563 14.379 57.4383 14.1818 57.6753 13.9331C58.4331 13.1418 59.6619 13.1418 60.4197 13.9331C61.1774 14.7239 61.1774 16.006 60.4197 16.7967C59.2032 18.0662 57.5866 18.7655 55.8662 18.7655C54.1464 18.7655 52.5292 18.0662 51.3127 16.7967C50.5555 16.006 50.5555 14.7239 51.3131 13.9331Z" fill="#8C8C8C"/>
<path d="M39.7905 28.7254L31.9774 11.3459C31.6178 10.5456 30.8213 10.0639 29.9768 10.1307C27.1555 10.3533 21.8637 11.3297 14.2415 15.062C6.70503 18.7521 2.60873 22.3319 0.61581 24.4653C-0.0164205 25.1424 -0.17816 26.1578 0.206638 27.0139L7.97813 44.3017C12.2722 53.8537 22.2356 59.036 32.0403 57.0021C32.674 56.8707 33.2674 56.5801 33.7691 56.1553C41.5351 49.5865 44.0846 38.2778 39.7905 28.7254ZM24.0888 27.4299C25.2954 23.9448 28.994 22.1333 32.3334 23.3931C33.3411 23.7729 33.8628 24.9338 33.4988 25.986C33.1348 27.0376 32.0224 27.5825 31.0143 27.2023C29.6876 26.7022 28.2183 27.4217 27.7389 28.8061C27.4532 29.6311 26.7083 30.144 25.9138 30.144C25.6947 30.144 25.472 30.1052 25.2543 30.0229C24.2465 29.6425 23.7244 28.4816 24.0888 27.43V27.4299ZM16.5842 34.2679C16.2684 34.1478 15.9328 34.0943 15.597 34.1104C15.2612 34.1265 14.9318 34.2121 14.6278 34.362C14.3232 34.5101 14.0498 34.7198 13.8233 34.9789C13.5969 35.2381 13.422 35.5416 13.3087 35.8718C13.023 36.6968 12.2777 37.2097 11.4832 37.2097C11.2645 37.2097 11.0419 37.1703 10.8242 37.0886C9.81591 36.7087 9.29426 35.5477 9.65823 34.4957C10.243 32.8073 11.4223 31.4576 12.9794 30.6952C14.5371 29.9328 16.2852 29.8486 17.9029 30.4587C18.9109 30.8386 19.4327 31.9995 19.0687 33.0516C18.7042 34.1034 17.5918 34.6478 16.5842 34.2679ZM23.1 47.5059C21.6928 47.5056 20.2964 47.2493 18.9735 46.7487C17.9653 46.3689 17.4437 45.208 17.8077 44.1558C18.172 43.1041 19.2839 42.5591 20.2922 42.9395C24.5951 44.562 29.3609 42.2284 30.9157 37.7381C31.2796 36.6859 32.3919 36.1415 33.4002 36.5214C34.4078 36.9016 34.9296 38.0625 34.5656 39.1148C32.7758 44.2835 28.0864 47.5059 23.1 47.5059Z" fill="#8C8C8C"/>
</svg>
