<svg width="12" height="14" viewBox="0 0 12 14" fill="none" xmlns="http://www.w3.org/2000/svg">
<path d="M11.1533 0.0933332C11.2778 0.155555 11.34 0.264445 11.34 0.42V7C11.34 7.18667 11.2467 7.32667 11.06 7.42L9.8 7.84C8.80445 8.15111 8.01111 8.30667 7.42 8.30667C7.07778 8.30667 6.73556 8.26 6.39333 8.16667C6.17556 8.10444 5.88 7.99556 5.50667 7.84C5.16444 7.71556 4.9 7.62222 4.71333 7.56C4.43333 7.46667 4.16889 7.42 3.92 7.42C3.39111 7.42 2.67556 7.56 1.77333 7.84C1.46222 7.93333 1.15111 8.04222 0.84 8.16667V13.58C0.84 13.7044 0.801111 13.8056 0.723333 13.8833C0.645556 13.9611 0.544445 14 0.42 14C0.295556 14 0.194444 13.9611 0.116667 13.8833C0.0388889 13.8056 0 13.7044 0 13.58V0.42C0 0.295556 0.0388889 0.194445 0.116667 0.116667C0.194444 0.038889 0.295556 0 0.42 0C0.544445 0 0.645556 0.038889 0.723333 0.116667C0.801111 0.194445 0.84 0.295556 0.84 0.42V0.7L1.54 0.466666C2.53556 0.155555 3.32889 0 3.92 0C4.23111 0 4.55778 0.046667 4.9 0.14C5.11778 0.202223 5.41333 0.311111 5.78667 0.466666C6.12889 0.622222 6.39333 0.715556 6.58 0.746667C6.86 0.84 7.14 0.886666 7.42 0.886666C7.94889 0.886666 8.66445 0.746666 9.56667 0.466666C9.94 0.342222 10.3289 0.202222 10.7333 0.0466661L11.1533 0.0933332ZM10.5 1.07333C10.2511 1.16667 10.0178 1.24444 9.8 1.30667C8.83556 1.58667 8.04222 1.72667 7.42 1.72667C7.07778 1.72667 6.72 1.68 6.34667 1.58667C6.12889 1.52444 5.84889 1.41556 5.50667 1.26H5.46C5.11778 1.13556 4.86889 1.04222 4.71333 0.98C4.43333 0.917777 4.16889 0.886666 3.92 0.886666C3.42222 0.886666 2.72222 1.02667 1.82 1.30667L0.84 1.63333V7.23333L1.54 7C2.50444 6.72 3.29778 6.58 3.92 6.58C4.23111 6.58 4.57333 6.62667 4.94667 6.72C5.16444 6.78222 5.44445 6.87556 5.78667 7L5.83333 7.04667C6.17556 7.17111 6.44 7.26444 6.62667 7.32667C6.90667 7.38889 7.17111 7.42 7.42 7.42C7.91778 7.42 8.61778 7.28 9.52 7L10.5 6.72V1.07333Z" fill="#5D5D66"/>
</svg>
