<svg width="22" height="22" viewBox="0 0 22 22" fill="none" xmlns="http://www.w3.org/2000/svg">
<path d="M16.3394 20.9059H6.19336C3.79266 20.9059 1.84756 18.9521 1.84756 16.5514V10.059C1.84756 8.86737 2.58355 7.36913 3.52981 6.63315L8.25235 2.95324C9.67175 1.84927 11.941 1.7967 13.413 2.83058L18.8277 6.62438C19.8703 7.3516 20.6852 8.91118 20.6852 10.1816V16.5601C20.6852 18.9521 18.7401 20.9059 16.3394 20.9059ZM9.05843 3.98712L4.33588 7.66702C3.7138 8.15768 3.16182 9.27041 3.16182 10.059V16.5514C3.16182 18.2248 4.51988 19.5917 6.19336 19.5917H16.3394C18.0129 19.5917 19.3709 18.2336 19.3709 16.5601V10.1816C19.3709 9.34051 18.7664 8.1752 18.0742 7.70207L12.6595 3.90826C11.6606 3.20733 10.0135 3.24237 9.05843 3.98712Z" fill="#0C0C0C"/>
<path d="M11.2664 17.4008C10.9072 17.4008 10.6093 17.1029 10.6093 16.7436V14.1151C10.6093 13.7559 10.9072 13.458 11.2664 13.458C11.6256 13.458 11.9235 13.7559 11.9235 14.1151V16.7436C11.9235 17.1029 11.6256 17.4008 11.2664 17.4008Z" fill="#0C0C0C"/>
</svg>
