<svg width="438" height="47" viewBox="0 0 438 47" fill="none" xmlns="http://www.w3.org/2000/svg">
<path d="M29.208 1.92V36H22.632V21.456H7.176V36H0.552V1.92H7.176V15.696H22.632V1.92H29.208ZM46.8878 36.48C44.8398 36.48 42.9998 36.144 41.3678 35.472C39.7358 34.768 38.3438 33.808 37.1918 32.592C36.0718 31.376 35.2078 29.984 34.5998 28.416C33.9918 26.848 33.6878 25.2 33.6878 23.472C33.6878 21.712 33.9918 20.048 34.5998 18.48C35.2078 16.912 36.0718 15.52 37.1918 14.304C38.3438 13.088 39.7358 12.144 41.3678 11.472C42.9998 10.768 44.8398 10.416 46.8878 10.416C48.9358 10.416 50.7598 10.768 52.3598 11.472C53.9918 12.144 55.3838 13.088 56.5358 14.304C57.6878 15.52 58.5518 16.912 59.1278 18.48C59.7358 20.048 60.0398 21.712 60.0398 23.472C60.0398 25.2 59.7358 26.848 59.1278 28.416C58.5518 29.984 57.6878 31.376 56.5358 32.592C55.4158 33.808 54.0398 34.768 52.4078 35.472C50.7758 36.144 48.9358 36.48 46.8878 36.48ZM40.3118 23.472C40.3118 24.944 40.5998 26.256 41.1758 27.408C41.7518 28.528 42.5358 29.408 43.5278 30.048C44.5198 30.688 45.6398 31.008 46.8878 31.008C48.1038 31.008 49.2078 30.688 50.1998 30.048C51.1918 29.376 51.9758 28.48 52.5518 27.36C53.1598 26.208 53.4638 24.896 53.4638 23.424C53.4638 21.984 53.1598 20.688 52.5518 19.536C51.9758 18.384 51.1918 17.488 50.1998 16.848C49.2078 16.208 48.1038 15.888 46.8878 15.888C45.6398 15.888 44.5198 16.224 43.5278 16.896C42.5358 17.536 41.7518 18.432 41.1758 19.584C40.5998 20.704 40.3118 22 40.3118 23.472ZM94.7374 10.848H100.833L90.3214 36H84.9454L80.7214 25.2L76.5934 36H71.1694L60.7054 10.848H66.7534L74.2414 29.856L77.1694 21.648L72.8014 10.896H78.1294L80.7214 18.576L83.3614 10.896H88.6894L84.3214 21.648L87.2974 29.856L94.7374 10.848ZM116.658 1.92L125.058 17.952L133.602 1.92H140.754L128.37 24.096V36H121.794V24L109.458 1.92H116.658ZM151.091 36.48C149.043 36.48 147.203 36.144 145.571 35.472C143.939 34.768 142.547 33.808 141.395 32.592C140.275 31.376 139.411 29.984 138.803 28.416C138.195 26.848 137.891 25.2 137.891 23.472C137.891 21.712 138.195 20.048 138.803 18.48C139.411 16.912 140.275 15.52 141.395 14.304C142.547 13.088 143.939 12.144 145.571 11.472C147.203 10.768 149.043 10.416 151.091 10.416C153.139 10.416 154.963 10.768 156.563 11.472C158.195 12.144 159.587 13.088 160.739 14.304C161.891 15.52 162.755 16.912 163.331 18.48C163.939 20.048 164.243 21.712 164.243 23.472C164.243 25.2 163.939 26.848 163.331 28.416C162.755 29.984 161.891 31.376 160.739 32.592C159.619 33.808 158.243 34.768 156.611 35.472C154.979 36.144 153.139 36.48 151.091 36.48ZM144.515 23.472C144.515 24.944 144.803 26.256 145.379 27.408C145.955 28.528 146.739 29.408 147.731 30.048C148.723 30.688 149.843 31.008 151.091 31.008C152.307 31.008 153.411 30.688 154.403 30.048C155.395 29.376 156.179 28.48 156.755 27.36C157.363 26.208 157.667 24.896 157.667 23.424C157.667 21.984 157.363 20.688 156.755 19.536C156.179 18.384 155.395 17.488 154.403 16.848C153.411 16.208 152.307 15.888 151.091 15.888C149.843 15.888 148.723 16.224 147.731 16.896C146.739 17.536 145.955 18.432 145.379 19.584C144.803 20.704 144.515 22 144.515 23.472ZM168.344 26.592V10.848H174.776V25.2C174.776 27.12 175.128 28.576 175.832 29.568C176.536 30.528 177.576 31.008 178.952 31.008C179.784 31.008 180.6 30.848 181.4 30.528C182.232 30.176 182.984 29.664 183.656 28.992C184.36 28.32 184.952 27.472 185.432 26.448V10.848H191.864V28.8C191.864 29.472 191.976 29.952 192.2 30.24C192.456 30.528 192.856 30.704 193.4 30.768V36C192.76 36.096 192.216 36.16 191.768 36.192C191.352 36.256 190.968 36.288 190.616 36.288C189.464 36.288 188.52 36.032 187.784 35.52C187.08 34.976 186.664 34.24 186.536 33.312L186.392 31.296C185.272 32.992 183.832 34.288 182.072 35.184C180.312 36.048 178.376 36.48 176.264 36.48C173.672 36.48 171.704 35.648 170.36 33.984C169.016 32.288 168.344 29.824 168.344 26.592ZM213.328 36.48C211.376 36.48 209.648 36.048 208.144 35.184C206.672 34.288 205.52 33.088 204.688 31.584V46.224H198.256V10.848H203.872V15.168C204.832 13.696 206.048 12.544 207.52 11.712C208.992 10.848 210.672 10.416 212.56 10.416C214.256 10.416 215.808 10.752 217.216 11.424C218.656 12.096 219.904 13.04 220.96 14.256C222.016 15.44 222.832 16.816 223.408 18.384C224.016 19.92 224.32 21.584 224.32 23.376C224.32 25.808 223.84 28.016 222.88 30C221.952 31.984 220.656 33.568 218.992 34.752C217.36 35.904 215.472 36.48 213.328 36.48ZM211.168 31.008C212.16 31.008 213.056 30.8 213.856 30.384C214.656 29.968 215.344 29.408 215.92 28.704C216.528 27.968 216.976 27.152 217.264 26.256C217.584 25.328 217.744 24.368 217.744 23.376C217.744 22.32 217.568 21.344 217.216 20.448C216.896 19.552 216.416 18.768 215.776 18.096C215.136 17.392 214.384 16.848 213.52 16.464C212.688 16.08 211.776 15.888 210.784 15.888C210.176 15.888 209.552 16 208.912 16.224C208.304 16.416 207.712 16.704 207.136 17.088C206.56 17.472 206.048 17.92 205.6 18.432C205.184 18.944 204.88 19.504 204.688 20.112V26.016C205.072 26.944 205.584 27.792 206.224 28.56C206.896 29.328 207.664 29.936 208.528 30.384C209.392 30.8 210.272 31.008 211.168 31.008ZM240.294 36.48C238.246 36.48 236.406 36.144 234.774 35.472C233.142 34.768 231.75 33.808 230.598 32.592C229.478 31.376 228.614 29.984 228.006 28.416C227.398 26.848 227.094 25.2 227.094 23.472C227.094 21.712 227.398 20.048 228.006 18.48C228.614 16.912 229.478 15.52 230.598 14.304C231.75 13.088 233.142 12.144 234.774 11.472C236.406 10.768 238.246 10.416 240.294 10.416C242.342 10.416 244.166 10.768 245.766 11.472C247.398 12.144 248.79 13.088 249.942 14.304C251.094 15.52 251.958 16.912 252.534 18.48C253.142 20.048 253.446 21.712 253.446 23.472C253.446 25.2 253.142 26.848 252.534 28.416C251.958 29.984 251.094 31.376 249.942 32.592C248.822 33.808 247.446 34.768 245.814 35.472C244.182 36.144 242.342 36.48 240.294 36.48ZM233.718 23.472C233.718 24.944 234.006 26.256 234.582 27.408C235.158 28.528 235.942 29.408 236.934 30.048C237.926 30.688 239.046 31.008 240.294 31.008C241.51 31.008 242.614 30.688 243.606 30.048C244.598 29.376 245.382 28.48 245.958 27.36C246.566 26.208 246.87 24.896 246.87 23.424C246.87 21.984 246.566 20.688 245.958 19.536C245.382 18.384 244.598 17.488 243.606 16.848C242.614 16.208 241.51 15.888 240.294 15.888C239.046 15.888 237.926 16.224 236.934 16.896C235.942 17.536 235.158 18.432 234.582 19.584C234.006 20.704 233.718 22 233.718 23.472ZM257.739 0.959999H264.171V27.936C264.171 29.088 264.363 29.872 264.747 30.288C265.131 30.672 265.659 30.864 266.331 30.864C266.843 30.864 267.371 30.8 267.915 30.672C268.459 30.544 268.939 30.384 269.355 30.192L270.219 35.088C269.355 35.504 268.347 35.824 267.195 36.048C266.043 36.272 265.003 36.384 264.075 36.384C262.059 36.384 260.491 35.856 259.371 34.8C258.283 33.712 257.739 32.176 257.739 30.192V0.959999ZM272.974 0.959999H279.406V27.936C279.406 29.088 279.598 29.872 279.982 30.288C280.366 30.672 280.894 30.864 281.566 30.864C282.078 30.864 282.606 30.8 283.15 30.672C283.694 30.544 284.174 30.384 284.59 30.192L285.454 35.088C284.59 35.504 283.582 35.824 282.43 36.048C281.278 36.272 280.238 36.384 279.31 36.384C277.294 36.384 275.726 35.856 274.606 34.8C273.518 33.712 272.974 32.176 272.974 30.192V0.959999ZM309.075 2.016H315.219L319.107 13.296L323.043 2.016H329.139L323.283 17.52L327.603 28.368L337.251 1.92H344.451L330.819 36H325.107L319.107 21.696L313.155 36H307.443L293.859 1.92H300.963L310.659 28.368L314.883 17.52L309.075 2.016ZM355.56 36.48C353.512 36.48 351.672 36.144 350.04 35.472C348.408 34.768 347.016 33.808 345.864 32.592C344.744 31.376 343.88 29.984 343.272 28.416C342.664 26.848 342.36 25.2 342.36 23.472C342.36 21.712 342.664 20.048 343.272 18.48C343.88 16.912 344.744 15.52 345.864 14.304C347.016 13.088 348.408 12.144 350.04 11.472C351.672 10.768 353.512 10.416 355.56 10.416C357.608 10.416 359.432 10.768 361.032 11.472C362.664 12.144 364.056 13.088 365.208 14.304C366.36 15.52 367.224 16.912 367.8 18.48C368.408 20.048 368.712 21.712 368.712 23.472C368.712 25.2 368.408 26.848 367.8 28.416C367.224 29.984 366.36 31.376 365.208 32.592C364.088 33.808 362.712 34.768 361.08 35.472C359.448 36.144 357.608 36.48 355.56 36.48ZM348.984 23.472C348.984 24.944 349.272 26.256 349.848 27.408C350.424 28.528 351.208 29.408 352.2 30.048C353.192 30.688 354.312 31.008 355.56 31.008C356.776 31.008 357.88 30.688 358.872 30.048C359.864 29.376 360.648 28.48 361.224 27.36C361.832 26.208 362.136 24.896 362.136 23.424C362.136 21.984 361.832 20.688 361.224 19.536C360.648 18.384 359.864 17.488 358.872 16.848C357.88 16.208 356.776 15.888 355.56 15.888C354.312 15.888 353.192 16.224 352.2 16.896C351.208 17.536 350.424 18.432 349.848 19.584C349.272 20.704 348.984 22 348.984 23.472ZM388.029 16.416C386.077 16.416 384.333 16.8 382.797 17.568C381.261 18.304 380.157 19.376 379.485 20.784V36H373.053V10.848H378.957V16.224C379.853 14.496 380.989 13.136 382.365 12.144C383.741 11.152 385.197 10.608 386.733 10.512C387.085 10.512 387.357 10.512 387.549 10.512C387.741 10.512 387.901 10.528 388.029 10.56V16.416ZM408.8 36L401.456 25.152L398.048 28.512V36H391.616V0.959999H398.048V22.176L408.176 10.896H414.992L405.632 21.552L415.664 36H408.8ZM427.505 36.48C425.361 36.48 423.313 36.128 421.361 35.424C419.409 34.72 417.729 33.68 416.321 32.304L418.625 28.128C420.129 29.344 421.601 30.24 423.041 30.816C424.513 31.392 425.921 31.68 427.265 31.68C428.513 31.68 429.505 31.456 430.241 31.008C431.009 30.56 431.393 29.888 431.393 28.992C431.393 28.384 431.185 27.92 430.769 27.6C430.353 27.248 429.745 26.944 428.945 26.688C428.177 26.432 427.233 26.144 426.113 25.824C424.257 25.216 422.705 24.624 421.457 24.048C420.209 23.472 419.265 22.752 418.625 21.888C418.017 20.992 417.713 19.856 417.713 18.48C417.713 16.816 418.129 15.392 418.961 14.208C419.825 12.992 421.009 12.048 422.513 11.376C424.049 10.704 425.841 10.368 427.889 10.368C429.681 10.368 431.377 10.656 432.977 11.232C434.577 11.776 436.033 12.672 437.345 13.92L434.753 18C433.473 17.008 432.257 16.288 431.105 15.84C429.953 15.36 428.785 15.12 427.601 15.12C426.929 15.12 426.289 15.2 425.681 15.36C425.105 15.52 424.625 15.792 424.241 16.176C423.889 16.528 423.713 17.04 423.713 17.712C423.713 18.32 423.873 18.8 424.193 19.152C424.545 19.472 425.057 19.76 425.729 20.016C426.433 20.272 427.281 20.56 428.273 20.88C430.289 21.456 431.985 22.048 433.361 22.656C434.769 23.264 435.825 24.016 436.529 24.912C437.233 25.776 437.585 26.976 437.585 28.512C437.585 31.008 436.673 32.96 434.849 34.368C433.025 35.776 430.577 36.48 427.505 36.48Z" fill="#333333"/>
</svg>
