<svg width="34" height="34" viewBox="0 0 34 34" fill="none" xmlns="http://www.w3.org/2000/svg">
<circle cx="17" cy="17" r="17" fill="#F7F7FA"/>
<path d="M17.3995 7.75C18.3839 7.75263 18.8835 7.75788 19.3149 7.77013L19.4846 7.77625C19.6806 7.78325 19.874 7.792 20.1076 7.8025C21.0386 7.84625 21.6739 7.99325 22.2313 8.20938C22.8088 8.43163 23.2953 8.73263 23.7818 9.21825C24.2269 9.65552 24.5712 10.1847 24.7906 10.7688C25.0068 11.3261 25.1538 11.9614 25.1975 12.8933C25.208 13.126 25.2168 13.3194 25.2238 13.5163L25.229 13.686C25.2421 14.1165 25.2474 14.6161 25.2491 15.6005L25.25 16.2533V17.3995C25.2521 18.0377 25.2454 18.676 25.2299 19.314L25.2246 19.4838C25.2176 19.6806 25.2089 19.874 25.1984 20.1068C25.1546 21.0386 25.0059 21.673 24.7906 22.2313C24.5712 22.8153 24.2269 23.3445 23.7818 23.7818C23.3445 24.2269 22.8153 24.5712 22.2313 24.7906C21.6739 25.0068 21.0386 25.1538 20.1076 25.1975L19.4846 25.2238L19.3149 25.229C18.8835 25.2413 18.3839 25.2474 17.3995 25.2491L16.7468 25.25H15.6014C14.9629 25.2523 14.3243 25.2455 13.686 25.2299L13.5163 25.2246C13.3085 25.2168 13.1009 25.2077 12.8933 25.1975C11.9623 25.1538 11.327 25.0068 10.7688 24.7906C10.185 24.571 9.65615 24.2268 9.21913 23.7818C8.77371 23.3446 8.4291 22.8154 8.20938 22.2313C7.99326 21.6739 7.84626 21.0386 7.80251 20.1068L7.77626 19.4838L7.77188 19.314C7.75575 18.676 7.74846 18.0377 7.75001 17.3995V15.6005C7.74759 14.9623 7.754 14.324 7.76926 13.686L7.77538 13.5163C7.78238 13.3194 7.79113 13.126 7.80163 12.8933C7.84538 11.9614 7.99238 11.327 8.20851 10.7688C8.42874 10.1844 8.77395 9.65526 9.22001 9.21825C9.65677 8.77336 10.1853 8.42906 10.7688 8.20938C11.327 7.99325 11.9614 7.84625 12.8933 7.8025C13.126 7.792 13.3203 7.78325 13.5163 7.77625L13.686 7.771C14.3241 7.75545 14.9623 7.74874 15.6005 7.75087L17.3995 7.75ZM16.5 12.125C15.3397 12.125 14.2269 12.5859 13.4064 13.4064C12.5859 14.2269 12.125 15.3397 12.125 16.5C12.125 17.6603 12.5859 18.7731 13.4064 19.5936C14.2269 20.4141 15.3397 20.875 16.5 20.875C17.6603 20.875 18.7731 20.4141 19.5936 19.5936C20.4141 18.7731 20.875 17.6603 20.875 16.5C20.875 15.3397 20.4141 14.2269 19.5936 13.4064C18.7731 12.5859 17.6603 12.125 16.5 12.125ZM16.5 13.875C16.8447 13.8749 17.1861 13.9428 17.5046 14.0746C17.8231 14.2065 18.1125 14.3998 18.3563 14.6435C18.6001 14.8872 18.7935 15.1766 18.9255 15.4951C19.0574 15.8135 19.1254 16.1548 19.1254 16.4996C19.1255 16.8443 19.0577 17.1856 18.9258 17.5041C18.7939 17.8226 18.6006 18.1121 18.3569 18.3558C18.1132 18.5996 17.8239 18.793 17.5054 18.925C17.1869 19.057 16.8456 19.1249 16.5009 19.125C15.8047 19.125 15.137 18.8484 14.6447 18.3562C14.1524 17.8639 13.8759 17.1962 13.8759 16.5C13.8759 15.8038 14.1524 15.1361 14.6447 14.6438C15.137 14.1516 15.8047 13.875 16.5009 13.875M21.0946 10.8125C20.8046 10.8125 20.5264 10.9277 20.3212 11.1329C20.1161 11.338 20.0009 11.6162 20.0009 11.9063C20.0009 12.1963 20.1161 12.4745 20.3212 12.6796C20.5264 12.8848 20.8046 13 21.0946 13C21.3847 13 21.6629 12.8848 21.868 12.6796C22.0732 12.4745 22.1884 12.1963 22.1884 11.9063C22.1884 11.6162 22.0732 11.338 21.868 11.1329C21.6629 10.9277 21.3847 10.8125 21.0946 10.8125Z" fill="#28292E"/>
</svg>
