<svg width="65" height="65" viewBox="0 0 65 65" fill="none" xmlns="http://www.w3.org/2000/svg">
<path d="M32.5002 46.9133C23.5774 46.9133 16.318 54.1728 16.318 63.0957C16.318 64.1474 17.1707 65 18.2223 65H46.7782C47.8298 65 48.6825 64.1474 48.6825 63.0957C48.6825 54.1728 41.4232 46.9133 32.5002 46.9133ZM24.2061 28.4145C24.2061 25.1076 21.1845 22.629 17.9291 23.2728L14.453 23.969C11.9881 24.4619 10.1991 26.6442 10.1991 29.158V39.5291C5.6646 37.1101 -0.0691921 40.5948 0.000631573 45.7583C0.352416 55.0363 13.6569 55.0345 14.0076 45.7582V36.101L18.6664 35.1692C21.8763 34.5286 24.2061 31.6878 24.2061 28.4145ZM19.4106 17.8856L30.5961 23.4784V4.94223L21.1138 0.201029C20.8235 0.055867 20.5008 -0.0126701 20.1766 0.0019266C19.8523 0.0165233 19.5371 0.113769 19.261 0.28443C18.9849 0.45509 18.757 0.6935 18.5989 0.97702C18.4409 1.26054 18.3579 1.57976 18.3579 1.90436V16.1824C18.3579 16.5361 18.4564 16.8827 18.6423 17.1835C18.8283 17.4844 19.0943 17.7275 19.4106 17.8856ZM45.59 17.8856C45.9064 17.7275 46.1724 17.4843 46.3583 17.1835C46.5443 16.8826 46.6427 16.536 46.6427 16.1823V1.90436C46.6427 1.57976 46.5598 1.26054 46.4017 0.97702C46.2436 0.6935 46.0157 0.45509 45.7396 0.28443C45.4635 0.113769 45.1483 0.0165233 44.8241 0.0019266C44.4998 -0.0126701 44.1772 0.055867 43.8868 0.201029L34.4045 4.94223V23.4784L45.59 17.8856ZM57.2684 22.4369C55.7079 22.4375 54.1842 22.91 52.8973 23.7925C51.6103 22.9101 50.0865 22.4375 48.5261 22.4369C44.2627 22.4369 40.7944 25.9054 40.7944 30.1686C40.7944 38.612 51.6835 43.3762 52.1471 43.5749C52.3842 43.6764 52.6394 43.7288 52.8973 43.7288C53.1552 43.7288 53.4104 43.6764 53.6474 43.5749C54.1109 43.3762 65 38.612 65 30.1686C65.0001 25.9053 61.5317 22.4369 57.2684 22.4369Z" fill="#8C8C8C"/>
<path d="M39.5712 39.8418C39.5712 35.9365 36.4052 32.7705 32.4999 32.7705C23.1302 33.1172 23.1328 46.5678 32.5001 46.9131C36.4054 46.913 39.5712 43.7471 39.5712 39.8418Z" fill="#8C8C8C"/>
</svg>
