<svg width="17" height="17" viewBox="0 0 17 17" fill="none" xmlns="http://www.w3.org/2000/svg">
<g clip-path="url(#clip0_38_1647)">
<path d="M8.38052 1.81314C8.94941 1.81314 9.42941 2.00869 9.82052 2.3998C10.2116 2.79092 10.4072 3.25314 10.4072 3.78647V7.78647H6.40719V3.78647C6.40719 3.25314 6.59385 2.79092 6.96719 2.3998C7.34052 2.00869 7.81163 1.81314 8.38052 1.81314ZM11.3672 7.78647V3.78647C11.3672 2.96869 11.0739 2.26647 10.4872 1.6798C9.90052 1.09314 9.1983 0.799805 8.38052 0.799805C7.56274 0.799805 6.86052 1.09314 6.27385 1.6798C5.68719 2.26647 5.39385 2.96869 5.39385 3.78647V7.78647C4.82497 7.78647 4.34497 7.98203 3.95385 8.37314C3.56274 8.76425 3.36719 9.24425 3.36719 9.81314V14.7731C3.36719 15.342 3.56274 15.822 3.95385 16.2131C4.34497 16.6042 4.82497 16.7998 5.39385 16.7998H11.3672C11.9361 16.7998 12.4161 16.6042 12.8072 16.2131C13.1983 15.822 13.3939 15.342 13.3939 14.7731V9.81314C13.3939 9.24425 13.1983 8.76425 12.8072 8.37314C12.4161 7.98203 11.9361 7.78647 11.3672 7.78647ZM5.39385 8.7998H11.3672C11.6516 8.7998 11.8916 8.89758 12.0872 9.09314C12.2827 9.28869 12.3805 9.52869 12.3805 9.81314V14.7731C12.3805 15.0576 12.2827 15.2976 12.0872 15.4931C11.8916 15.6887 11.6516 15.7865 11.3672 15.7865H5.39385C5.10941 15.7865 4.86941 15.6887 4.67385 15.4931C4.4783 15.2976 4.38052 15.0576 4.38052 14.7731V9.81314C4.38052 9.52869 4.4783 9.28869 4.67385 9.09314C4.86941 8.89758 5.10941 8.7998 5.39385 8.7998Z" fill="#5D5D66"/>
</g>
<defs>
<clipPath id="clip0_38_1647">
<rect width="16" height="16" fill="white" transform="matrix(1 0 0 -1 0.380859 16.7998)"/>
</clipPath>
</defs>
</svg>
