<svg width="118" height="30" viewBox="0 0 118 30" fill="none" xmlns="http://www.w3.org/2000/svg">
<rect x="0.774414" y="3.38672" width="10.8387" height="24.7742" rx="0.774194" fill="#E22400"/>
<rect x="13.1611" y="8.03223" width="10.8387" height="20.129" rx="0.774194" fill="#E22400"/>
<rect x="25.5488" y="0.290039" width="10.8387" height="27.871" rx="0.774194" fill="#E22400"/>
<path d="M64.8385 7.43564V7.88322C64.2982 7.9558 63.8828 8.11306 63.5925 8.355C63.1893 8.69371 62.5522 9.61709 61.6812 11.1252L58.1248 17.0647V21.0324C58.1248 21.8792 58.1691 22.4074 58.2578 22.6171C58.3466 22.8187 58.5199 23.0002 58.778 23.1614C59.0441 23.3147 59.3949 23.3913 59.8304 23.3913H60.7498V23.8389H51.5441V23.3913H52.403C52.8869 23.3913 53.2699 23.3066 53.5522 23.1373C53.7619 23.0244 53.9272 22.8308 54.0482 22.5566C54.1369 22.3631 54.1812 21.855 54.1812 21.0324V17.7421L50.3224 10.7139C49.5562 9.32677 49.0159 8.51225 48.7014 8.27032C48.3869 8.02032 47.9675 7.89129 47.4433 7.88322V7.43564H55.3062V7.88322H54.9554C54.4796 7.88322 54.1449 7.95177 53.9514 8.08887C53.7659 8.22596 53.6732 8.37112 53.6732 8.52435C53.6732 8.81467 53.9957 9.54451 54.6409 10.7139L57.6046 16.1453L60.5562 11.1977C61.2901 9.98806 61.657 9.18564 61.657 8.79048C61.657 8.57274 61.5522 8.39129 61.3425 8.24612C61.0683 8.04451 60.5643 7.92354 59.8304 7.88322V7.43564H64.8385ZM74.6127 12.5284V21.3832C74.6127 22.2461 74.6933 22.7864 74.8546 23.0042C75.0159 23.2139 75.3425 23.3469 75.8345 23.4034V23.8389H71.2256V22.3268C70.6853 22.9719 70.1449 23.4437 69.6046 23.7421C69.0643 24.0324 68.4595 24.1776 67.7901 24.1776C67.153 24.1776 66.5845 23.984 66.0845 23.5969C65.5925 23.2018 65.2619 22.7421 65.0925 22.2179C64.9232 21.6937 64.8385 20.7784 64.8385 19.4719V14.984C64.8385 14.1292 64.7578 13.5969 64.5966 13.3873C64.4433 13.1776 64.1167 13.0405 63.6167 12.976V12.5284H68.2256V20.2582C68.2256 21.0647 68.2619 21.5848 68.3345 21.8187C68.4151 22.0526 68.5361 22.23 68.6974 22.351C68.8667 22.4719 69.0603 22.5324 69.278 22.5324C69.5683 22.5324 69.8304 22.4558 70.0643 22.3026C70.3869 22.0929 70.774 21.6695 71.2256 21.0324V14.984C71.2256 14.1292 71.1449 13.5969 70.9837 13.3873C70.8304 13.1776 70.5038 13.0405 70.0038 12.976V12.5284H74.6127ZM81.8587 22.6897V26.8994C81.8587 27.48 81.903 27.8752 81.9917 28.0848C82.0885 28.2945 82.2337 28.4477 82.4272 28.5445C82.6207 28.6413 82.9998 28.6897 83.5643 28.6897V29.1373H77.1167V28.6897C77.6167 28.6735 77.9877 28.5324 78.2296 28.2663C78.3909 28.0808 78.4716 27.601 78.4716 26.8268V14.8873C78.4716 14.0889 78.3788 13.5808 78.1933 13.3631C78.0078 13.1373 77.649 13.0082 77.1167 12.976V12.5284H81.8587V14.0163C82.2538 13.4356 82.657 13.0163 83.0683 12.7582C83.657 12.3792 84.2982 12.1897 84.9917 12.1897C85.8224 12.1897 86.5764 12.4518 87.2538 12.976C87.9393 13.5002 88.4595 14.226 88.8143 15.1534C89.1691 16.0727 89.3466 17.0647 89.3466 18.1292C89.3466 19.2744 89.1611 20.3227 88.7901 21.2744C88.4272 22.2179 87.8949 22.9397 87.1933 23.4397C86.4998 23.9316 85.7256 24.1776 84.8708 24.1776C84.2498 24.1776 83.6691 24.0405 83.1288 23.7663C82.7256 23.5566 82.3022 23.1977 81.8587 22.6897ZM81.8587 21.4679C82.5522 22.4518 83.2941 22.9437 84.0845 22.9437C84.5199 22.9437 84.8788 22.7139 85.1611 22.2542C85.5804 21.5768 85.7901 20.2864 85.7901 18.3832C85.7901 16.4316 85.5603 15.0969 85.1006 14.3792C84.7941 13.9034 84.3828 13.6655 83.8667 13.6655C83.0522 13.6655 82.3828 14.2542 81.8587 15.4316V21.4679ZM96.6046 12.1897C97.5885 12.1897 98.5038 12.4437 99.3506 12.9518C100.197 13.4598 100.838 14.1816 101.274 15.1171C101.718 16.0526 101.939 17.0768 101.939 18.1897C101.939 19.7945 101.532 21.1373 100.718 22.2179C99.7337 23.5244 98.3748 24.1776 96.6409 24.1776C94.9393 24.1776 93.6288 23.5808 92.7095 22.3873C91.7901 21.1937 91.3304 19.8106 91.3304 18.2381C91.3304 16.6171 91.7982 15.2058 92.7337 14.0042C93.6772 12.7945 94.9675 12.1897 96.6046 12.1897ZM96.653 13.0485C96.2417 13.0485 95.8869 13.2058 95.5885 13.5203C95.2982 13.8268 95.1046 14.4397 95.0078 15.359C94.9191 16.2703 94.8748 17.5405 94.8748 19.1695C94.8748 20.0324 94.9312 20.8389 95.0441 21.5889C95.1328 22.1614 95.3224 22.5969 95.6127 22.8953C95.903 23.1937 96.2337 23.3429 96.6046 23.3429C96.9675 23.3429 97.2699 23.2421 97.5119 23.0405C97.8264 22.7663 98.0361 22.3832 98.1409 21.8913C98.3022 21.1252 98.3828 19.5768 98.3828 17.2461C98.3828 15.8752 98.3062 14.9356 98.153 14.4276C97.9998 13.9114 97.774 13.5364 97.4756 13.3026C97.2659 13.1332 96.9917 13.0485 96.653 13.0485ZM108.084 7.43564V21.4921C108.084 22.2905 108.177 22.8026 108.363 23.0284C108.548 23.2461 108.911 23.3711 109.451 23.4034V23.8389H103.343V23.4034C103.843 23.3873 104.213 23.2421 104.455 22.9679C104.617 22.7824 104.697 22.2905 104.697 21.4921V9.78241C104.697 8.99209 104.605 8.48806 104.419 8.27032C104.234 8.04451 103.875 7.91548 103.343 7.88322V7.43564H108.084ZM114.98 7.43564V21.4921C114.98 22.2905 115.072 22.8026 115.258 23.0284C115.443 23.2461 115.806 23.3711 116.347 23.4034V23.8389H110.238V23.4034C110.738 23.3873 111.109 23.2421 111.351 22.9679C111.512 22.7824 111.593 22.2905 111.593 21.4921V9.78241C111.593 8.99209 111.5 8.48806 111.314 8.27032C111.129 8.04451 110.77 7.91548 110.238 7.88322V7.43564H114.98Z" fill="#E22400"/>
</svg>
