<svg width="156" height="41" viewBox="0 0 156 41" fill="none" xmlns="http://www.w3.org/2000/svg">
<rect y="4.14355" width="14.5011" height="33.1454" rx="1.03579" fill="white"/>
<rect x="16.5723" y="10.3584" width="14.5011" height="26.9306" rx="1.03579" fill="white"/>
<rect x="33.1455" width="14.5011" height="37.2885" rx="1.03579" fill="white"/>
<path d="M85.7117 10.1264V10.7252C84.9888 10.8223 84.4332 11.0327 84.0448 11.3564C83.5053 11.8096 82.6529 13.045 81.4876 15.0626L76.7295 23.0091V28.3175C76.7295 29.4504 76.7888 30.1571 76.9075 30.4377C77.0262 30.7074 77.2582 30.9502 77.6034 31.1659C77.9595 31.3709 78.4288 31.4734 79.0115 31.4734H80.2415V32.0723H67.9252V31.4734H69.0743C69.7217 31.4734 70.2342 31.3602 70.6118 31.1336C70.8924 30.9825 71.1135 30.7236 71.2754 30.3567C71.3941 30.0978 71.4534 29.418 71.4534 28.3175V23.9154L66.2906 14.5123C65.2656 12.6566 64.5427 11.5668 64.1219 11.2431C63.7011 10.9087 63.1401 10.736 62.4388 10.7252V10.1264H72.9585V10.7252H72.4892C71.8526 10.7252 71.4049 10.8169 71.1459 11.0004C70.8977 11.1838 70.7737 11.378 70.7737 11.583C70.7737 11.9714 71.2053 12.9479 72.0684 14.5123L76.0336 21.7791L79.9825 15.1597C80.9644 13.5413 81.4553 12.4677 81.4553 11.939C81.4553 11.6477 81.315 11.405 81.0345 11.2108C80.6676 10.941 79.9933 10.7792 79.0115 10.7252V10.1264H85.7117ZM98.7886 16.94V28.7869C98.7886 29.9413 98.8965 30.6642 99.1123 30.9556C99.3281 31.2361 99.7651 31.4141 100.423 31.4896V32.0723H94.257V30.0492C93.5341 30.9124 92.8112 31.5436 92.0883 31.9428C91.3654 32.3312 90.5562 32.5254 89.6607 32.5254C88.8083 32.5254 88.0477 32.2665 87.3787 31.7486C86.7206 31.2199 86.2782 30.6049 86.0516 29.9036C85.825 29.2023 85.7117 27.9776 85.7117 26.2297V20.2254C85.7117 19.0817 85.6038 18.3696 85.3881 18.0891C85.1831 17.8085 84.7461 17.6251 84.0771 17.5388V16.94H90.2433V27.2817C90.2433 28.3607 90.2919 29.0566 90.389 29.3695C90.4969 29.6824 90.6587 29.9198 90.8745 30.0816C91.1011 30.2434 91.36 30.3244 91.6514 30.3244C92.0398 30.3244 92.3904 30.2219 92.7033 30.0169C93.1349 29.7363 93.6528 29.1699 94.257 28.3175V20.2254C94.257 19.0817 94.1491 18.3696 93.9333 18.0891C93.7283 17.8085 93.2914 17.6251 92.6224 17.5388V16.94H98.7886ZM108.483 30.5348V36.1669C108.483 36.9437 108.542 37.4724 108.661 37.7529C108.79 38.0335 108.985 38.2385 109.244 38.3679C109.503 38.4974 110.01 38.5622 110.765 38.5622V39.161H102.139V38.5622C102.808 38.5406 103.304 38.3518 103.628 37.9957C103.844 37.7475 103.951 37.1056 103.951 36.0698V20.0959C103.951 19.0278 103.827 18.348 103.579 18.0567C103.331 17.7546 102.851 17.582 102.139 17.5388V16.94H108.483V18.9306C109.012 18.1538 109.551 17.5928 110.101 17.2475C110.889 16.7404 111.747 16.4868 112.675 16.4868C113.786 16.4868 114.795 16.8375 115.701 17.5388C116.618 18.2401 117.314 19.2112 117.789 20.452C118.264 21.682 118.501 23.0091 118.501 24.4333C118.501 25.9654 118.253 27.368 117.757 28.6412C117.271 29.9036 116.559 30.8692 115.62 31.5382C114.692 32.1963 113.657 32.5254 112.513 32.5254C111.682 32.5254 110.905 32.342 110.182 31.9752C109.643 31.6946 109.076 31.2145 108.483 30.5348ZM108.483 28.9002C109.411 30.2165 110.404 30.8746 111.461 30.8746C112.044 30.8746 112.524 30.5671 112.901 29.9521C113.462 29.0458 113.743 27.3195 113.743 24.7732C113.743 22.1621 113.435 20.3764 112.82 19.4162C112.41 18.7796 111.86 18.4613 111.17 18.4613C110.08 18.4613 109.184 19.2489 108.483 20.8242V28.9002ZM128.212 16.4868C129.528 16.4868 130.753 16.8267 131.885 17.5064C133.018 18.1862 133.876 19.1518 134.459 20.4034C135.052 21.655 135.349 23.0253 135.349 24.5142C135.349 26.6613 134.804 28.4578 133.714 29.9036C132.398 31.6515 130.58 32.5254 128.26 32.5254C125.984 32.5254 124.23 31.727 123 30.1302C121.77 28.5333 121.155 26.6829 121.155 24.579C121.155 22.4103 121.781 20.5221 123.033 18.9145C124.295 17.296 126.021 16.4868 128.212 16.4868ZM128.276 17.6359C127.726 17.6359 127.251 17.8463 126.852 18.2671C126.464 18.6771 126.205 19.4971 126.075 20.7271C125.957 21.9463 125.897 23.6457 125.897 25.8251C125.897 26.9796 125.973 28.0586 126.124 29.062C126.243 29.828 126.496 30.4107 126.884 30.8099C127.273 31.2091 127.715 31.4087 128.212 31.4087C128.697 31.4087 129.102 31.2738 129.425 31.0041C129.846 30.6373 130.127 30.1248 130.267 29.4666C130.483 28.4416 130.591 26.37 130.591 23.2518C130.591 21.4176 130.488 20.1607 130.283 19.4809C130.078 18.7904 129.776 18.2887 129.377 17.9758C129.096 17.7492 128.729 17.6359 128.276 17.6359ZM143.57 10.1264V28.9325C143.57 30.0007 143.695 30.6858 143.943 30.9879C144.191 31.2792 144.676 31.4465 145.399 31.4896V32.0723H137.226V31.4896C137.895 31.4681 138.392 31.2738 138.715 30.907C138.931 30.6588 139.039 30.0007 139.039 28.9325V13.2662C139.039 12.2088 138.915 11.5344 138.667 11.2431C138.418 10.941 137.938 10.7684 137.226 10.7252V10.1264H143.57ZM152.795 10.1264V28.9325C152.795 30.0007 152.92 30.6858 153.168 30.9879C153.416 31.2792 153.901 31.4465 154.624 31.4896V32.0723H146.451V31.4896C147.12 31.4681 147.617 31.2738 147.94 30.907C148.156 30.6588 148.264 30.0007 148.264 28.9325V13.2662C148.264 12.2088 148.14 11.5344 147.892 11.2431C147.644 10.941 147.163 10.7684 146.451 10.7252V10.1264H152.795Z" fill="white"/>
</svg>
