<svg width="146" height="48" viewBox="0 0 146 48" fill="none" xmlns="http://www.w3.org/2000/svg">
<rect width="145.548" height="48" fill="white"/>
<rect x="10.8386" y="12.3872" width="10.8387" height="24.7742" rx="0.774194" fill="#E22400"/>
<rect x="23.2256" y="17.0327" width="10.8387" height="20.129" rx="0.774194" fill="#E22400"/>
<rect x="35.6128" y="9.29053" width="10.8387" height="27.871" rx="0.774194" fill="#E22400"/>
<path d="M74.9032 16.4356V16.8832C74.3629 16.9558 73.9475 17.1131 73.6572 17.355C73.254 17.6937 72.6169 18.6171 71.7459 20.1252L68.1895 26.0647V30.0324C68.1895 30.8792 68.2338 31.4074 68.3225 31.6171C68.4113 31.8187 68.5846 32.0002 68.8427 32.1614C69.1088 32.3147 69.4596 32.3913 69.8951 32.3913H70.8145V32.8389H61.6088V32.3913H62.4677C62.9516 32.3913 63.3346 32.3066 63.6169 32.1373C63.8266 32.0244 63.9919 31.8308 64.1129 31.5566C64.2016 31.3631 64.2459 30.855 64.2459 30.0324V26.7421L60.3871 19.7139C59.6209 18.3268 59.0806 17.5123 58.7661 17.2703C58.4516 17.0203 58.0322 16.8913 57.508 16.8832V16.4356H65.3709V16.8832H65.0201C64.5443 16.8832 64.2096 16.9518 64.0161 17.0889C63.8306 17.226 63.7379 17.3711 63.7379 17.5244C63.7379 17.8147 64.0604 18.5445 64.7056 19.7139L67.6693 25.1453L70.6209 20.1977C71.3548 18.9881 71.7217 18.1856 71.7217 17.7905C71.7217 17.5727 71.6169 17.3913 71.4072 17.2461C71.133 17.0445 70.629 16.9235 69.8951 16.8832V16.4356H74.9032ZM78.6048 21.1897C79.5887 21.1897 80.504 21.4437 81.3508 21.9518C82.1975 22.4598 82.8387 23.1816 83.2742 24.1171C83.7177 25.0526 83.9395 26.0768 83.9395 27.1897C83.9395 28.7945 83.5322 30.1373 82.7177 31.2179C81.7338 32.5244 80.375 33.1776 78.6411 33.1776C76.9395 33.1776 75.629 32.5808 74.7096 31.3873C73.7903 30.1937 73.3306 28.8106 73.3306 27.2381C73.3306 25.6171 73.7983 24.2058 74.7338 23.0042C75.6774 21.7945 76.9677 21.1897 78.6048 21.1897ZM78.6532 22.0485C78.2419 22.0485 77.8871 22.2058 77.5887 22.5203C77.2983 22.8268 77.1048 23.4397 77.008 24.359C76.9193 25.2703 76.875 26.5405 76.875 28.1695C76.875 29.0324 76.9314 29.8389 77.0443 30.5889C77.133 31.1614 77.3225 31.5969 77.6129 31.8953C77.9032 32.1937 78.2338 32.3429 78.6048 32.3429C78.9677 32.3429 79.2701 32.2421 79.5121 32.0405C79.8266 31.7663 80.0363 31.3832 80.1411 30.8913C80.3024 30.1252 80.383 28.5768 80.383 26.2461C80.383 24.8752 80.3064 23.9356 80.1532 23.4276C80 22.9114 79.7742 22.5364 79.4758 22.3026C79.2661 22.1332 78.9919 22.0485 78.6532 22.0485ZM96.5806 21.5284V30.3832C96.5806 31.2461 96.6613 31.7864 96.8225 32.0042C96.9838 32.2139 97.3104 32.3469 97.8024 32.4034V32.8389H93.1935V31.3268C92.6532 31.9719 92.1129 32.4437 91.5725 32.7421C91.0322 33.0324 90.4274 33.1776 89.758 33.1776C89.1209 33.1776 88.5524 32.984 88.0524 32.5969C87.5604 32.2018 87.2298 31.7421 87.0604 31.2179C86.8911 30.6937 86.8064 29.7784 86.8064 28.4719V23.984C86.8064 23.1292 86.7258 22.5969 86.5645 22.3873C86.4113 22.1776 86.0846 22.0405 85.5846 21.976V21.5284H90.1935V29.2582C90.1935 30.0647 90.2298 30.5848 90.3024 30.8187C90.383 31.0526 90.504 31.23 90.6653 31.351C90.8346 31.4719 91.0282 31.5324 91.2459 31.5324C91.5363 31.5324 91.7983 31.4558 92.0322 31.3026C92.3548 31.0929 92.7419 30.6695 93.1935 30.0324V23.984C93.1935 23.1292 93.1129 22.5969 92.9516 22.3873C92.7983 22.1776 92.4717 22.0405 91.9717 21.976V21.5284H96.5806ZM103.827 31.6897V35.8994C103.827 36.48 103.871 36.8752 103.96 37.0848C104.056 37.2945 104.202 37.4477 104.395 37.5445C104.589 37.6413 104.968 37.6897 105.532 37.6897V38.1373H99.0846V37.6897C99.5846 37.6735 99.9556 37.5324 100.198 37.2663C100.359 37.0808 100.439 36.601 100.439 35.8268V23.8873C100.439 23.0889 100.347 22.5808 100.161 22.3631C99.9758 22.1373 99.6169 22.0082 99.0846 21.976V21.5284H103.827V23.0163C104.222 22.4356 104.625 22.0163 105.036 21.7582C105.625 21.3792 106.266 21.1897 106.96 21.1897C107.79 21.1897 108.544 21.4518 109.222 21.976C109.907 22.5002 110.427 23.226 110.782 24.1534C111.137 25.0727 111.314 26.0647 111.314 27.1292C111.314 28.2744 111.129 29.3227 110.758 30.2744C110.395 31.2179 109.863 31.9397 109.161 32.4397C108.468 32.9316 107.694 33.1776 106.839 33.1776C106.218 33.1776 105.637 33.0405 105.097 32.7663C104.694 32.5566 104.27 32.1977 103.827 31.6897ZM103.827 30.4679C104.52 31.4518 105.262 31.9437 106.052 31.9437C106.488 31.9437 106.847 31.7139 107.129 31.2542C107.548 30.5768 107.758 29.2864 107.758 27.3832C107.758 25.4316 107.528 24.0969 107.069 23.3792C106.762 22.9034 106.351 22.6655 105.835 22.6655C105.02 22.6655 104.351 23.2542 103.827 24.4316V30.4679ZM118.573 21.1897C119.556 21.1897 120.472 21.4437 121.319 21.9518C122.165 22.4598 122.806 23.1816 123.242 24.1171C123.685 25.0526 123.907 26.0768 123.907 27.1897C123.907 28.7945 123.5 30.1373 122.685 31.2179C121.702 32.5244 120.343 33.1776 118.609 33.1776C116.907 33.1776 115.597 32.5808 114.677 31.3873C113.758 30.1937 113.298 28.8106 113.298 27.2381C113.298 25.6171 113.766 24.2058 114.702 23.0042C115.645 21.7945 116.935 21.1897 118.573 21.1897ZM118.621 22.0485C118.21 22.0485 117.855 22.2058 117.556 22.5203C117.266 22.8268 117.073 23.4397 116.976 24.359C116.887 25.2703 116.843 26.5405 116.843 28.1695C116.843 29.0324 116.899 29.8389 117.012 30.5889C117.101 31.1614 117.29 31.5969 117.581 31.8953C117.871 32.1937 118.202 32.3429 118.573 32.3429C118.935 32.3429 119.238 32.2421 119.48 32.0405C119.794 31.7663 120.004 31.3832 120.109 30.8913C120.27 30.1252 120.351 28.5768 120.351 26.2461C120.351 24.8752 120.274 23.9356 120.121 23.4276C119.968 22.9114 119.742 22.5364 119.444 22.3026C119.234 22.1332 118.96 22.0485 118.621 22.0485ZM130.052 16.4356V30.4921C130.052 31.2905 130.145 31.8026 130.331 32.0284C130.516 32.2461 130.879 32.3711 131.419 32.4034V32.8389H125.31V32.4034C125.81 32.3873 126.181 32.2421 126.423 31.9679C126.585 31.7824 126.665 31.2905 126.665 30.4921V18.7824C126.665 17.9921 126.573 17.4881 126.387 17.2703C126.202 17.0445 125.843 16.9155 125.31 16.8832V16.4356H130.052ZM136.948 16.4356V30.4921C136.948 31.2905 137.04 31.8026 137.226 32.0284C137.411 32.2461 137.774 32.3711 138.314 32.4034V32.8389H132.206V32.4034C132.706 32.3873 133.077 32.2421 133.319 31.9679C133.48 31.7824 133.56 31.2905 133.56 30.4921V18.7824C133.56 17.9921 133.468 17.4881 133.282 17.2703C133.097 17.0445 132.738 16.9155 132.206 16.8832V16.4356H136.948Z" fill="#E22400"/>
</svg>
