<svg width="214" height="214" viewBox="0 0 214 214" fill="none" xmlns="http://www.w3.org/2000/svg">
<g clip-path="url(#clip0_653_898)">
<path d="M107 10.8672C129.175 10.8878 150.662 18.5715 167.822 32.6173C184.982 46.663 196.76 66.2076 201.163 87.9416C205.565 109.676 202.321 132.263 191.98 151.88C181.639 171.496 164.836 186.936 144.417 195.584C120.966 205.267 94.64 205.29 71.173 195.648C47.706 186.007 29 167.482 19.1303 144.11C9.26058 120.738 9.02695 94.4127 18.4803 70.8693C27.9337 47.3259 46.308 28.4722 69.6002 18.4157C81.4327 13.4114 94.1527 10.8441 107 10.8672ZM107 0C47.9076 0 0 47.9076 0 107C0 166.092 47.9076 214 107 214C166.092 214 214 166.092 214 107C214 47.9076 166.092 0 107 0Z" fill="#E22400"/>
<path d="M107 42.2148C94.1867 42.2148 81.6612 46.0144 71.0073 53.1331C60.3535 60.2518 52.0498 70.3699 47.1464 82.2078C42.2429 94.0457 40.96 107.072 43.4597 119.639C45.9595 132.206 52.1296 143.75 61.19 152.81C70.2504 161.87 81.794 168.041 94.3611 170.54C106.928 173.04 119.954 171.757 131.792 166.854C143.63 161.95 153.748 153.647 160.867 142.993C167.986 132.339 171.785 119.813 171.785 107C171.785 89.8179 164.96 73.3396 152.81 61.19C140.66 49.0404 124.182 42.2148 107 42.2148ZM107 148.454C105.198 148.454 103.436 147.92 101.938 146.919C100.439 145.917 99.2715 144.494 98.5819 142.829C97.8923 141.164 97.7118 139.332 98.0634 137.565C98.415 135.797 99.2828 134.174 100.557 132.899C101.831 131.625 103.455 130.757 105.222 130.406C106.99 130.054 108.822 130.235 110.487 130.924C112.152 131.614 113.575 132.782 114.576 134.28C115.577 135.779 116.112 137.54 116.112 139.342C116.112 141.759 115.152 144.077 113.443 145.785C111.734 147.494 109.417 148.454 107 148.454ZM116.112 112.755C116.112 113.952 115.876 115.136 115.418 116.242C114.96 117.347 114.289 118.351 113.443 119.197C112.597 120.043 111.592 120.713 110.487 121.171C109.381 121.628 108.196 121.864 107 121.863C105.804 121.864 104.619 121.628 103.513 121.171C102.408 120.713 101.403 120.043 100.557 119.197C99.7112 118.351 99.0399 117.347 98.582 116.242C98.124 115.136 97.8883 113.952 97.8883 112.755V74.6576C97.8883 72.241 98.8483 69.9234 100.557 68.2146C102.266 66.5058 104.583 65.5459 107 65.5459C109.417 65.5459 111.734 66.5058 113.443 68.2146C115.152 69.9234 116.112 72.241 116.112 74.6576V112.755Z" fill="#E22400"/>
</g>
<defs>
<clipPath id="clip0_653_898">
<rect width="214" height="214" fill="white"/>
</clipPath>
</defs>
</svg>
