<svg width="218" height="218" viewBox="0 0 218 218" fill="none" xmlns="http://www.w3.org/2000/svg">
<path fill-rule="evenodd" clip-rule="evenodd" d="M65.3851 206.966H91.9743C98.3669 206.966 103.839 208.167 109.645 210.842C118.351 214.854 127.876 214.385 138.218 214.343H169.96C176.446 214.343 183.889 214.839 188.942 209.893C193.832 205.105 191.649 198.143 187.375 196.104C199.227 196.103 199.227 174.16 187.375 174.16H189.696C201.548 174.159 201.548 152.217 189.696 152.217H186.467C191.969 150.742 194.413 145.217 194.005 140.134C193.61 135.204 190.597 130.69 180.889 130.69H155.94C156.422 120.935 160.935 112.124 160.045 100.92C159.692 96.4786 157.76 90.8749 154.75 86.3255C152.81 83.3931 150.422 80.8989 147.721 79.4359C140.712 75.6401 135.284 78.9705 134.116 86.6861C133.533 90.5407 133.64 95.0638 133.344 98.7225C131.756 118.323 129.543 138.347 102.477 138.347H65.3846V206.966H65.3851Z" fill="#E6B17C"/>
<path fill-rule="evenodd" clip-rule="evenodd" d="M97.5776 207.306C101.72 207.832 105.602 208.979 109.645 210.842C118.351 214.854 127.876 214.385 138.218 214.343H169.96C190.637 214.343 188.972 130.689 177.217 130.689H147.956C148.439 120.934 152.951 112.124 152.061 100.919C151.709 96.4782 149.777 90.8745 146.766 86.325C143.862 81.9344 140.263 78.721 137.518 79.5952C135.791 81.0952 134.595 83.5213 134.116 86.6857C133.532 90.5403 133.64 95.0634 133.343 98.7221C131.755 118.322 129.542 138.346 102.477 138.346H97.5767V207.306L97.5776 207.306Z" fill="#F9C795"/>
<path fill-rule="evenodd" clip-rule="evenodd" d="M69.8034 29.0005L79.2557 49.1195L101.311 51.8922L85.0979 67.099L89.2765 88.9318L69.8034 78.211L50.3307 88.9318L54.5093 67.099L38.296 51.8922L60.3515 49.1195L69.8034 29.0005Z" fill="#F9AC00"/>
<path fill-rule="evenodd" clip-rule="evenodd" d="M72.0379 33.7559L79.2558 49.1193L101.311 51.892L85.0979 67.0988L88.5808 85.298L72.7558 76.5856L69.8038 78.2108L55.8404 85.8983L59.755 65.4468L44.475 51.1154L65.1002 48.5228L72.0379 33.7559Z" fill="#FDC72E"/>
<path d="M60.8527 133.144H78.7538C81.8594 133.144 84.3809 135.665 84.3809 138.771V206.542C84.3809 209.647 81.8594 212.169 78.7542 212.169H60.8527C57.747 212.169 55.2255 209.647 55.2255 206.541V138.771C55.2255 135.665 57.747 133.144 60.8527 133.144Z" fill="#2A93FC"/>
<path d="M67.878 133.144H78.7538C81.8594 133.144 84.3809 135.665 84.3809 138.771V206.542C84.3809 209.647 81.8594 212.169 78.7542 212.169H67.878C64.7724 212.169 62.2509 209.647 62.2509 206.541V138.771C62.2509 135.665 64.7724 133.144 67.878 133.144Z" fill="#43A2FF"/>
<path fill-rule="evenodd" clip-rule="evenodd" d="M30.3475 36.2468C30.5889 36.3865 30.8004 36.5724 30.9699 36.7939C31.1393 37.0154 31.2635 37.2681 31.3353 37.5376C31.4071 37.8071 31.4251 38.0882 31.3883 38.3646C31.3515 38.6411 31.2606 38.9076 31.1208 39.1489C30.981 39.3902 30.7951 39.6017 30.5736 39.7712C30.3521 39.9407 30.0994 40.0649 29.8299 40.1367C29.5604 40.2085 29.2794 40.2265 29.0029 40.1897C28.7265 40.1529 28.46 40.0619 28.2186 39.9221L20.4745 35.451C20.2332 35.3112 20.0218 35.1252 19.8523 34.9037C19.6828 34.6822 19.5587 34.4295 19.4869 34.16C19.4151 33.8906 19.3971 33.6096 19.4338 33.3331C19.4706 33.0567 19.5615 32.7902 19.7013 32.5488C19.8411 32.3075 20.027 32.0961 20.2485 31.9266C20.47 31.7572 20.7227 31.633 20.9922 31.5612C21.2617 31.4894 21.5427 31.4714 21.8192 31.5082C22.0956 31.545 22.3621 31.6358 22.6034 31.7756L30.3475 36.2468ZM28.2186 83.0359C28.7057 82.76 29.2819 82.6875 29.8221 82.8342C30.3622 82.9809 30.8227 83.3349 31.1032 83.8192C31.3838 84.3036 31.4618 84.8791 31.3203 85.4207C31.1788 85.9622 30.8292 86.426 30.3475 86.7112L22.6034 91.1823C22.1164 91.4582 21.5402 91.5307 21 91.384C20.4598 91.2373 19.9994 90.8833 19.7188 90.399C19.4383 89.9146 19.3603 89.3391 19.5018 88.7975C19.6433 88.256 19.9929 87.7922 20.4745 87.507L28.2186 83.0359ZM67.6745 108.268C67.6745 107.703 67.8988 107.162 68.298 106.763C68.6973 106.363 69.2388 106.139 69.8034 106.139C70.368 106.139 70.9095 106.363 71.3088 106.763C71.708 107.162 71.9323 107.703 71.9323 108.268V117.21C71.9323 117.775 71.708 118.316 71.3088 118.716C70.9095 119.115 70.368 119.339 69.8034 119.339C69.2388 119.339 68.6973 119.115 68.298 118.716C67.8988 118.316 67.6745 117.775 67.6745 117.21V108.268ZM109.259 86.7112C108.772 86.4289 108.417 85.9645 108.272 85.4203C108.127 84.876 108.204 84.2965 108.486 83.8091C108.768 83.3217 109.233 82.9664 109.777 82.8214C110.321 82.6764 110.901 82.7535 111.388 83.0359L119.132 87.507C119.374 87.6468 119.585 87.8327 119.755 88.0542C119.924 88.2757 120.048 88.5284 120.12 88.7979C120.192 89.0674 120.21 89.3484 120.173 89.6248C120.136 89.9013 120.045 90.1678 119.906 90.4091C119.766 90.6504 119.58 90.8619 119.358 91.0313C119.137 91.2008 118.884 91.325 118.615 91.3968C118.345 91.4686 118.064 91.4866 117.788 91.4498C117.511 91.413 117.245 91.3221 117.003 91.1823L109.259 86.7112ZM111.388 39.9221C110.901 40.198 110.325 40.2705 109.785 40.1238C109.245 39.9771 108.784 39.6231 108.504 39.1387C108.223 38.6544 108.145 38.0788 108.287 37.5373C108.428 36.9957 108.778 36.5319 109.259 36.2468L117.003 31.7756C117.49 31.5081 118.062 31.4416 118.597 31.5905C119.132 31.7394 119.587 32.0918 119.865 32.5722C120.143 33.0527 120.223 33.623 120.086 34.161C119.949 34.6991 119.606 35.1621 119.132 35.451L111.388 39.9221ZM71.9323 14.6899C71.9323 15.2545 71.708 15.796 71.3088 16.1952C70.9095 16.5945 70.368 16.8188 69.8034 16.8188C69.2388 16.8188 68.6973 16.5945 68.298 16.1952C67.8988 15.796 67.6745 15.2545 67.6745 14.6899V5.74805C67.6745 5.18343 67.8988 4.64193 68.298 4.24268C68.6973 3.84344 69.2388 3.61914 69.8034 3.61914C70.368 3.61914 70.9095 3.84344 71.3088 4.24268C71.708 4.64193 71.9323 5.18343 71.9323 5.74805V14.6899Z" fill="#F9AC00"/>
</svg>
    