<svg width="15" height="15" viewBox="0 0 15 15" fill="none" xmlns="http://www.w3.org/2000/svg">
<path d="M3.25251 2.19669C3.34585 2.10336 3.45474 2.05669 3.57918 2.05669C3.70362 2.05669 3.81251 2.10336 3.90585 2.19669L9.13251 7.42336C9.22585 7.51669 9.27251 7.62558 9.27251 7.75003C9.27251 7.87447 9.22585 7.98336 9.13251 8.07669L3.90585 13.3034C3.81251 13.3967 3.70362 13.4434 3.57918 13.4434C3.45474 13.4434 3.35362 13.3967 3.27585 13.3034C3.19807 13.21 3.15918 13.1089 3.15918 13C3.15918 12.8911 3.19029 12.79 3.25251 12.6967L8.19918 7.75003L3.25251 2.80336C3.19029 2.71003 3.15918 2.60892 3.15918 2.50003C3.15918 2.39114 3.19029 2.29003 3.25251 2.19669ZM6.75251 2.19669C6.84585 2.10336 6.95474 2.05669 7.07918 2.05669C7.20362 2.05669 7.31251 2.10336 7.40585 2.19669L12.6325 7.42336C12.7258 7.51669 12.7725 7.62558 12.7725 7.75003C12.7725 7.87447 12.7258 7.98336 12.6325 8.07669L7.40585 13.3034C7.31251 13.3967 7.20362 13.4434 7.07918 13.4434C6.95474 13.4434 6.85362 13.3967 6.77585 13.3034C6.69807 13.21 6.65918 13.1089 6.65918 13C6.65918 12.8911 6.69029 12.79 6.75251 12.6967L11.6992 7.75003L6.75251 2.80336C6.69029 2.71003 6.65918 2.60892 6.65918 2.50003C6.65918 2.39114 6.69029 2.29003 6.75251 2.19669Z" fill="#5D5D66"/>
</svg>
