<svg width="16" height="17" viewBox="0 0 16 17" fill="none" xmlns="http://www.w3.org/2000/svg">
<g clip-path="url(#clip0_38_1131)">
<path d="M13.4935 1.26959L13.6535 1.10959C13.7957 0.96737 13.9735 0.869593 14.1868 0.816259C14.4001 0.762926 14.6135 0.762926 14.8268 0.816259C15.0401 0.869593 15.2179 0.96737 15.3601 1.10959C15.5024 1.25181 15.6001 1.42959 15.6535 1.64293C15.7068 1.85626 15.7068 2.06959 15.6535 2.28293C15.6001 2.49626 15.5024 2.67404 15.3601 2.81626L15.2001 2.97626C15.4846 3.2607 15.6179 3.60737 15.6001 4.01626C15.5824 4.42515 15.4312 4.77181 15.1468 5.05626L4.85347 15.3496C4.78236 15.3851 4.71124 15.4207 4.64013 15.4563L0.640133 16.4696C0.4268 16.5051 0.257911 16.4607 0.133466 16.3363C0.009022 16.2118 -0.0354225 16.0429 0.000133102 15.8296L1.01347 11.8296C1.04902 11.7585 1.08458 11.6874 1.12013 11.6163L10.7735 1.96293C10.6668 1.89181 10.5601 1.86515 10.4535 1.88293C10.3468 1.9007 10.2401 1.94515 10.1335 2.01626L6.88013 5.32293C6.73791 5.46515 6.56902 5.50959 6.37347 5.45626C6.17791 5.40293 6.05347 5.28737 6.00013 5.10959C5.9468 4.93181 5.99124 4.77182 6.13347 4.62959L9.44013 1.32293C9.72458 1.03848 10.0624 0.88737 10.4535 0.869593C10.8446 0.851815 11.2001 0.985148 11.5201 1.26959C11.8046 1.0207 12.1335 0.896259 12.5068 0.896259C12.8801 0.896259 13.209 1.0207 13.4935 1.26959ZM12.8535 2.01626C12.7468 1.94515 12.6312 1.90959 12.5068 1.90959C12.3824 1.90959 12.2668 1.94515 12.1601 2.01626L1.97347 12.2029L1.17347 15.2963L4.2668 14.4963L14.4535 4.30959C14.5601 4.23848 14.6135 4.13181 14.6135 3.98959C14.6135 3.84737 14.5601 3.72293 14.4535 3.61626L12.8535 2.01626Z" fill="#6C757D"/>
</g>
<defs>
<clipPath id="clip0_38_1131">
<rect width="16" height="16" fill="white" transform="matrix(1 0 0 -1 0 16.4697)"/>
</clipPath>
</defs>
</svg>
