<svg width="15" height="15" viewBox="0 0 15 15" fill="none" xmlns="http://www.w3.org/2000/svg">
<g clip-path="url(#clip0_74_577)">
<path d="M9.48016 0.916589C9.23127 0.6677 8.95127 0.481033 8.64016 0.356588C8.32905 0.232144 8.00238 0.169922 7.66016 0.169922C7.31793 0.169922 6.99127 0.232144 6.68016 0.356588C6.36905 0.481033 6.08905 0.6677 5.84016 0.916589L5.32682 1.47659H4.53349C4.19127 1.47659 3.8646 1.53881 3.55349 1.66325C3.24238 1.7877 2.96238 1.97437 2.71349 2.22326C2.4646 2.47214 2.27793 2.75214 2.15349 3.06326C2.02905 3.37437 1.96682 3.70103 1.96682 4.04325V4.83659L1.40682 5.34992C1.18905 5.59881 1.01016 5.87881 0.870156 6.18992C0.730156 6.50103 0.660156 6.8277 0.660156 7.16992C0.660156 7.51214 0.730156 7.83881 0.870156 8.14992C1.01016 8.46103 1.18905 8.74103 1.40682 8.98992L1.96682 9.50326V10.2966C1.96682 10.6388 2.02905 10.9655 2.15349 11.2766C2.27793 11.5877 2.4646 11.8677 2.71349 12.1166C2.96238 12.3655 3.24238 12.5521 3.55349 12.6766C3.8646 12.801 4.19127 12.8633 4.53349 12.8633H5.32682L5.84016 13.4233C6.08905 13.641 6.36905 13.8199 6.68016 13.9599C6.99127 14.0999 7.31793 14.1699 7.66016 14.1699C8.00238 14.1699 8.32905 14.0999 8.64016 13.9599C8.95127 13.8199 9.23127 13.641 9.48016 13.4233L9.99349 12.8633H10.7868C11.129 12.8633 11.4557 12.801 11.7668 12.6766C12.0779 12.5521 12.3579 12.3655 12.6068 12.1166C12.8557 11.8677 13.0424 11.5877 13.1668 11.2766C13.2913 10.9655 13.3535 10.6388 13.3535 10.2966V9.50326L13.9135 8.98992C14.1313 8.74103 14.3102 8.46103 14.4502 8.14992C14.5902 7.83881 14.6602 7.51214 14.6602 7.16992C14.6602 6.8277 14.5902 6.50103 14.4502 6.18992C14.3102 5.87881 14.1313 5.59881 13.9135 5.34992L13.3535 4.83659V4.04325C13.3535 3.70103 13.2913 3.37437 13.1668 3.06326C13.0424 2.75214 12.8557 2.47214 12.6068 2.22326C12.3579 1.97437 12.0779 1.7877 11.7668 1.66325C11.4557 1.53881 11.129 1.47659 10.7868 1.47659H9.99349L9.48016 0.916589ZM9.71349 6.18992L7.10016 8.80326C7.00682 8.89659 6.89793 8.94326 6.77349 8.94326C6.64904 8.94326 6.55571 8.89659 6.49349 8.80326L5.14016 7.49659C5.07793 7.40325 5.04682 7.29437 5.04682 7.16992C5.04682 7.04548 5.08571 6.94437 5.16349 6.86659C5.24127 6.78881 5.34238 6.74992 5.46682 6.74992C5.59127 6.74992 5.70016 6.78103 5.79349 6.84326L6.77349 7.86992L9.10682 5.53659C9.20016 5.44326 9.30127 5.39659 9.41016 5.39659C9.51904 5.39659 9.62016 5.44326 9.71349 5.53659C9.80682 5.62992 9.85349 5.73881 9.85349 5.86326C9.85349 5.9877 9.80682 6.09659 9.71349 6.18992Z" fill="#EC595A"/>
</g>
<defs>
<clipPath id="clip0_74_577">
<rect width="14" height="14" fill="white" transform="matrix(1 0 0 -1 0.660156 14.1699)"/>
</clipPath>
</defs>
</svg>
