<svg width="72" height="20" viewBox="0 0 72 20" fill="none" xmlns="http://www.w3.org/2000/svg">
<g clip-path="url(#clip0_74_582)">
<path d="M4.41952 1.67C4.49507 1.55667 4.60841 1.5 4.75952 1.5H12.2395C12.3906 1.5 12.5134 1.54722 12.6079 1.64167C12.7023 1.73611 12.7495 1.85889 12.7495 2.01C12.7495 2.61444 12.5229 3.14333 12.0695 3.59667C11.9562 3.71 11.824 3.82333 11.6729 3.93667V8.64L11.7862 8.69667C12.0506 8.88556 12.3151 9.07444 12.5795 9.26333C13.4106 9.98111 13.8262 10.7556 13.8262 11.5867C13.8262 11.7378 13.7695 11.8606 13.6562 11.955C13.5429 12.0494 13.4106 12.1156 13.2595 12.1533H9.00952V16.9133C9.00952 17.14 8.95285 17.4611 8.83952 17.8767C8.72618 18.2922 8.61285 18.5 8.49952 18.5C8.38619 18.5 8.27285 18.2922 8.15952 17.8767C8.04619 17.4611 7.98952 17.14 7.98952 16.9133V12.0967H3.73952C3.58841 12.1344 3.45618 12.0967 3.34285 11.9833C3.22952 11.87 3.17285 11.7378 3.17285 11.5867C3.17285 10.7556 3.58841 9.98111 4.41952 9.26333C4.68396 9.03667 4.98618 8.82889 5.32618 8.64V3.93667C5.17507 3.82333 5.04285 3.71 4.92952 3.59667C4.47618 3.14333 4.24952 2.61444 4.24952 2.01C4.24952 1.85889 4.30618 1.74556 4.41952 1.67ZM6.06285 3.14333C6.25174 3.25667 6.36507 3.42667 6.40285 3.65333V8.92333C6.36507 9.15 6.25174 9.32 6.06285 9.43333H6.00619C5.70396 9.62222 5.42063 9.83 5.15618 10.0567C4.77841 10.3967 4.51396 10.7367 4.36285 11.0767H12.6362C12.4851 10.7367 12.2206 10.3967 11.8429 10.0567C11.5784 9.83 11.2762 9.62222 10.9362 9.43333C10.7095 9.32 10.6151 9.15 10.6529 8.92333V3.59667C10.6151 3.37 10.6906 3.21889 10.8795 3.14333C11.0684 3.06778 11.2101 2.97333 11.3045 2.86C11.399 2.74667 11.484 2.65222 11.5595 2.57667H5.43952C5.51507 2.65222 5.60952 2.74667 5.72285 2.86C5.83618 2.97333 5.94952 3.06778 6.06285 3.14333Z" fill="#DC3545"/>
</g>
<path d="M18.683 16V5.324H22.117C23.29 5.324 24.1853 5.6215 24.803 6.2165C25.4263 6.80583 25.738 7.60767 25.738 8.622C25.738 9.625 25.4263 10.4212 24.803 11.0105C24.1853 11.5942 23.29 11.886 22.117 11.886H20.026V16H18.683ZM20.026 10.73H22.117C22.8593 10.73 23.4203 10.5402 23.8 10.1605C24.1853 9.78083 24.378 9.268 24.378 8.622C24.378 7.96467 24.1853 7.4405 23.8 7.0495C23.4203 6.6585 22.8593 6.463 22.117 6.463H20.026V10.73ZM28.8781 5.953C28.6061 5.953 28.3908 5.8765 28.2321 5.7235C28.0734 5.56483 27.9941 5.358 27.9941 5.103C27.9941 4.85367 28.0734 4.65533 28.2321 4.508C28.3908 4.36067 28.6061 4.287 28.8781 4.287C29.1501 4.287 29.3654 4.36067 29.5241 4.508C29.6828 4.65533 29.7621 4.85367 29.7621 5.103C29.7621 5.358 29.6828 5.56483 29.5241 5.7235C29.3654 5.8765 29.1501 5.953 28.8781 5.953ZM28.2151 16V7.857H29.5411V16H28.2151ZM38.9736 16V11.223C38.9736 10.4467 38.7866 9.85733 38.4126 9.455C38.0442 9.047 37.5399 8.843 36.8996 8.843C36.4122 8.843 35.9901 8.97617 35.6331 9.2425C35.2761 9.50883 35.0012 9.89133 34.8086 10.39C34.6159 10.883 34.5196 11.4723 34.5196 12.158H34.0096C34.0096 11.2117 34.1342 10.4042 34.3836 9.7355C34.6329 9.06683 34.9956 8.55683 35.4716 8.2055C35.9532 7.8485 36.5369 7.67 37.2226 7.67C37.8629 7.67 38.4097 7.8145 38.8631 8.1035C39.3221 8.38683 39.6734 8.79483 39.9171 9.3275C40.1607 9.86017 40.2826 10.492 40.2826 11.223V16H38.9736ZM33.1936 16V7.874H34.3326L34.5196 9.744V16H33.1936ZM49.2333 16V11.223C49.2333 10.4467 49.0463 9.85733 48.6723 9.455C48.304 9.047 47.7997 8.843 47.1593 8.843C46.672 8.843 46.2498 8.97617 45.8928 9.2425C45.5358 9.50883 45.261 9.89133 45.0683 10.39C44.8757 10.883 44.7793 11.4723 44.7793 12.158H44.2693C44.2693 11.2117 44.394 10.4042 44.6433 9.7355C44.8927 9.06683 45.2553 8.55683 45.7313 8.2055C46.213 7.8485 46.7967 7.67 47.4823 7.67C48.1227 7.67 48.6695 7.8145 49.1228 8.1035C49.5818 8.38683 49.9332 8.79483 50.1768 9.3275C50.4205 9.86017 50.5423 10.492 50.5423 11.223V16H49.2333ZM43.4533 16V7.874H44.5923L44.7793 9.744V16H43.4533ZM56.5351 16.204C55.8324 16.204 55.2034 16.0255 54.6481 15.6685C54.0984 15.3058 53.6621 14.8043 53.3391 14.164C53.0218 13.5237 52.8631 12.787 52.8631 11.954C52.8631 11.0643 53.0218 10.2993 53.3391 9.659C53.6564 9.01867 54.0899 8.5285 54.6396 8.1885C55.1949 7.84283 55.8268 7.67 56.5351 7.67C57.1528 7.67 57.6798 7.79467 58.1161 8.044C58.5524 8.29333 58.9038 8.6305 59.1701 9.0555C59.4364 9.4805 59.6206 9.96217 59.7226 10.5005C59.8303 11.0332 59.8614 11.5857 59.8161 12.158H53.9341V11.342H58.9406L58.5496 11.597C58.5666 11.2627 58.5468 10.9283 58.4901 10.594C58.4391 10.2597 58.3399 9.95367 58.1926 9.676C58.0453 9.39267 57.8384 9.166 57.5721 8.996C57.3058 8.826 56.9658 8.741 56.5521 8.741C56.0308 8.741 55.5944 8.87417 55.2431 9.1405C54.8918 9.40683 54.6283 9.75817 54.4526 10.1945C54.2769 10.6252 54.1891 11.0927 54.1891 11.597V12.141C54.1891 12.7077 54.2741 13.2148 54.4441 13.6625C54.6198 14.1102 54.8804 14.4643 55.2261 14.725C55.5718 14.9857 56.0081 15.116 56.5351 15.116C57.0621 15.116 57.4956 14.9885 57.8356 14.7335C58.1756 14.4785 58.3824 14.1017 58.4561 13.603H59.8331C59.7481 14.1413 59.5554 14.606 59.2551 14.997C58.9548 15.3823 58.5723 15.6798 58.1076 15.8895C57.6429 16.0992 57.1188 16.204 56.5351 16.204ZM65.3525 16.204C64.6952 16.204 64.0917 16.0283 63.542 15.677C62.9923 15.32 62.5532 14.8213 62.2245 14.181C61.8958 13.535 61.7315 12.7757 61.7315 11.903C61.7315 11.036 61.893 10.2852 62.216 9.6505C62.539 9.01583 62.9668 8.5285 63.4995 8.1885C64.0378 7.84283 64.6272 7.67 65.2675 7.67C65.8625 7.67 66.3838 7.8145 66.8315 8.1035C67.2848 8.3925 67.6362 8.809 67.8855 9.353C68.1348 9.897 68.2595 10.5543 68.2595 11.325H67.7495C67.7495 10.7867 67.6418 10.3333 67.4265 9.965C67.2168 9.59667 66.942 9.319 66.602 9.132C66.262 8.93933 65.8965 8.843 65.5055 8.843C65.0635 8.843 64.6583 8.96767 64.29 9.217C63.9273 9.46067 63.6355 9.812 63.4145 10.271C63.1992 10.7243 63.0915 11.2683 63.0915 11.903C63.0915 12.549 63.1992 13.1043 63.4145 13.569C63.6355 14.0337 63.9273 14.3907 64.29 14.64C64.6583 14.8893 65.0635 15.014 65.5055 15.014C65.8738 15.014 66.228 14.9177 66.568 14.725C66.9137 14.5323 67.197 14.2518 67.418 13.8835C67.639 13.5095 67.7495 13.059 67.7495 12.532H68.2595C68.2595 13.3197 68.1292 13.9883 67.8685 14.538C67.6135 15.082 67.265 15.4957 66.823 15.779C66.3867 16.0623 65.8965 16.204 65.3525 16.204ZM67.9705 16L67.7495 14.096V4.406H69.0755V16H67.9705Z" fill="#DC3545"/>
<defs>
<clipPath id="clip0_74_582">
<rect width="17" height="17" fill="white" transform="matrix(1 0 0 -1 0 18.5)"/>
</clipPath>
</defs>
</svg>
