<svg width="20" height="20" viewBox="0 0 20 20" fill="none" xmlns="http://www.w3.org/2000/svg">
<path d="M7.5 2.5L7.5 5.625L4.375 5.625C4.20924 5.625 4.05027 5.69085 3.93306 5.80806C3.81585 5.92527 3.75 6.08424 3.75 6.25L3.75 15.625L3.125 15.625C2.95924 15.625 2.80027 15.6908 2.68306 15.8081C2.56585 15.9253 2.5 16.0842 2.5 16.25C2.5 16.4158 2.56585 16.5747 2.68306 16.6919C2.80027 16.8092 2.95924 16.875 3.125 16.875L16.875 16.875C17.0408 16.875 17.1997 16.8092 17.3169 16.6919C17.4342 16.5747 17.5 16.4158 17.5 16.25C17.5 16.0842 17.4342 15.9253 17.3169 15.8081C17.1997 15.6908 17.0408 15.625 16.875 15.625L16.25 15.625L16.25 8.75C16.25 8.58424 16.1842 8.42527 16.0669 8.30806C15.9497 8.19085 15.7908 8.125 15.625 8.125L12.5 8.125L12.5 2.5C12.5 2.33424 12.4342 2.17527 12.3169 2.05806C12.1997 1.94085 12.0408 1.875 11.875 1.875L8.125 1.875C7.95924 1.875 7.80027 1.94085 7.68306 2.05806C7.56585 2.17527 7.5 2.33424 7.5 2.5ZM5 6.875L7.5 6.875L7.5 15.625L5 15.625L5 6.875ZM15 9.375L15 15.625L12.5 15.625L12.5 9.375L15 9.375ZM11.25 3.125L11.25 15.625L8.75 15.625L8.75 3.125L11.25 3.125Z" fill="#E22400"/>
</svg>
