<svg width="15" height="15" viewBox="0 0 15 15" fill="none" xmlns="http://www.w3.org/2000/svg">
<path d="M7.59617 2.19669C7.65839 2.29003 7.68951 2.39114 7.68951 2.50003C7.68951 2.60891 7.65839 2.71003 7.59617 2.80336L2.64951 7.75003L7.59617 12.6967C7.65839 12.79 7.68951 12.8911 7.68951 13C7.68951 13.1089 7.65062 13.21 7.57284 13.3034C7.49506 13.3967 7.39395 13.4434 7.26951 13.4434C7.14506 13.4434 7.03617 13.3967 6.94284 13.3034L1.71617 8.07669C1.62284 7.98336 1.57617 7.87447 1.57617 7.75003C1.57617 7.62558 1.62284 7.51669 1.71617 7.42336L6.94284 2.19669C7.03617 2.10336 7.14506 2.05669 7.26951 2.05669C7.39395 2.05669 7.50284 2.10336 7.59617 2.19669ZM11.0962 2.19669C11.1584 2.29003 11.1895 2.39114 11.1895 2.50003C11.1895 2.60891 11.1584 2.71003 11.0962 2.80336L6.14951 7.75003L11.0962 12.6967C11.1584 12.79 11.1895 12.8911 11.1895 13C11.1895 13.1089 11.1506 13.21 11.0728 13.3034C10.9951 13.3967 10.8939 13.4434 10.7695 13.4434C10.6451 13.4434 10.5362 13.3967 10.4428 13.3034L5.21617 8.07669C5.12284 7.98336 5.07617 7.87447 5.07617 7.75003C5.07617 7.62558 5.12284 7.51669 5.21617 7.42336L10.4428 2.19669C10.5362 2.10336 10.6451 2.05669 10.7695 2.05669C10.8939 2.05669 11.0028 2.10336 11.0962 2.19669Z" fill="#5D5D66"/>
</svg>
