<svg width="15" height="15" viewBox="0 0 15 15" fill="none" xmlns="http://www.w3.org/2000/svg">
<path d="M5.15625 6.09387H2.34375C2.21943 6.09387 2.1002 6.04448 2.01229 5.95657C1.92439 5.86866 1.875 5.74944 1.875 5.62512V2.81262C1.875 2.6883 1.92439 2.56907 2.01229 2.48116C2.1002 2.39325 2.21943 2.34387 2.34375 2.34387C2.46807 2.34387 2.5873 2.39325 2.67521 2.48116C2.76311 2.56907 2.8125 2.6883 2.8125 2.81262V4.49367L3.66973 3.63644C4.71516 2.58575 6.135 1.99311 7.61719 1.98879H7.64824C9.11782 1.985 10.5297 2.56033 11.5781 3.59016C11.6637 3.67773 11.7117 3.79533 11.7117 3.91779C11.7117 4.04025 11.6638 4.15786 11.5782 4.24544C11.4926 4.33302 11.3761 4.38363 11.2537 4.38644C11.1312 4.38925 11.0126 4.34403 10.923 4.26047C10.0492 3.4027 8.87275 2.92342 7.64824 2.92629H7.62188C6.38682 2.93009 5.20376 3.42384 4.33242 4.29914L3.4752 5.15637H5.15625C5.28057 5.15637 5.3998 5.20575 5.48771 5.29366C5.57561 5.38157 5.625 5.5008 5.625 5.62512C5.625 5.74944 5.57561 5.86866 5.48771 5.95657C5.3998 6.04448 5.28057 6.09387 5.15625 6.09387ZM12.6562 8.90637H9.84375C9.71943 8.90637 9.6002 8.95575 9.51229 9.04366C9.42439 9.13157 9.375 9.2508 9.375 9.37512C9.375 9.49944 9.42439 9.61867 9.51229 9.70657C9.6002 9.79448 9.71943 9.84387 9.84375 9.84387H11.5248L10.6676 10.7011C9.79639 11.5762 8.61356 12.07 7.37871 12.0739H7.35234C6.12784 12.0768 4.95142 11.5975 4.07754 10.7398C4.03388 10.6951 3.98173 10.6596 3.92416 10.6354C3.8666 10.6112 3.80476 10.5987 3.7423 10.5987C3.67985 10.5987 3.61802 10.6112 3.56045 10.6354C3.50288 10.6596 3.45074 10.6951 3.40709 10.7398C3.36343 10.7845 3.32914 10.8374 3.30624 10.8955C3.28333 10.9536 3.27227 11.0157 3.2737 11.0782C3.27514 11.1406 3.28903 11.2021 3.31458 11.2591C3.34012 11.3161 3.3768 11.3675 3.42246 11.4101C4.47086 12.4399 5.88277 13.0152 7.35234 13.0114H7.38281C8.8648 13.007 10.2844 12.4143 11.3297 11.3638L12.1875 10.5066V12.1876C12.1875 12.3119 12.2369 12.4312 12.3248 12.5191C12.4127 12.607 12.5319 12.6564 12.6562 12.6564C12.7806 12.6564 12.8998 12.607 12.9877 12.5191C13.0756 12.4312 13.125 12.3119 13.125 12.1876V9.37512C13.125 9.2508 13.0756 9.13157 12.9877 9.04366C12.8998 8.95575 12.7806 8.90637 12.6562 8.90637Z" fill="#5D5D66"/>
</svg>
