<svg width="14" height="15" viewBox="0 0 14 15" fill="none" xmlns="http://www.w3.org/2000/svg">
<path d="M4.77344 0.875L4.77344 3.99219L1.65625 3.99219C1.53815 3.99219 1.42488 4.0391 1.34137 4.12262C1.25785 4.20613 1.21094 4.3194 1.21094 4.4375L1.21094 13.4922L0.46875 13.4922C0.350646 13.4922 0.237379 13.5391 0.153866 13.6226C0.0703541 13.7061 0.0234375 13.8194 0.0234375 13.9375C0.0234375 14.0556 0.0703542 14.1689 0.153866 14.2524C0.237379 14.3359 0.350646 14.3828 0.46875 14.3828L13.5312 14.3828C13.6494 14.3828 13.7626 14.3359 13.8461 14.2524C13.9296 14.1689 13.9766 14.0556 13.9766 13.9375C13.9766 13.8194 13.9296 13.7061 13.8461 13.6226C13.7626 13.5391 13.6494 13.4922 13.5312 13.4922L12.7891 13.4922L12.7891 6.8125C12.7891 6.6944 12.7421 6.58113 12.6586 6.49762C12.5751 6.4141 12.4619 6.36719 12.3437 6.36719L9.22656 6.36719L9.22656 0.875C9.22656 0.756896 9.17965 0.643628 9.09613 0.560115C9.01262 0.476603 8.89935 0.429687 8.78125 0.429687L5.21875 0.429687C5.10065 0.429687 4.98738 0.476603 4.90387 0.560116C4.82035 0.643628 4.77344 0.756896 4.77344 0.875ZM2.10156 4.88281L4.77344 4.88281L4.77344 13.4922L2.10156 13.4922L2.10156 4.88281ZM11.8984 7.25781L11.8984 13.4922L9.22656 13.4922L9.22656 7.25781L11.8984 7.25781ZM8.33594 1.32031L8.33594 13.4922L5.66406 13.4922L5.66406 1.32031L8.33594 1.32031Z" fill="#6B7280"/>
</svg>
