<svg width="22" height="22" viewBox="0 0 22 22" fill="none" xmlns="http://www.w3.org/2000/svg">
<path d="M10.1811 19.1529C5.23075 19.1529 1.20038 15.1225 1.20038 10.1721C1.20038 5.22178 5.23075 1.19141 10.1811 1.19141C15.1315 1.19141 19.1618 5.22178 19.1618 10.1721C19.1618 15.1225 15.1315 19.1529 10.1811 19.1529ZM10.1811 2.50566C5.94921 2.50566 2.51463 5.949 2.51463 10.1721C2.51463 14.3953 5.94921 17.8386 10.1811 17.8386C14.413 17.8386 17.8476 14.3953 17.8476 10.1721C17.8476 5.949 14.413 2.50566 10.1811 2.50566Z" fill="#0C0C0C"/>
<path d="M19.3809 20.0288C19.2144 20.0288 19.0479 19.9674 18.9165 19.836L17.1642 18.0837C16.9101 17.8296 16.9101 17.409 17.1642 17.1549C17.4183 16.9008 17.8388 16.9008 18.0929 17.1549L19.8452 18.9073C20.0993 19.1613 20.0993 19.5819 19.8452 19.836C19.7138 19.9674 19.5473 20.0288 19.3809 20.0288Z" fill="#0C0C0C"/>
</svg>
