<svg width="31" height="31" viewBox="0 0 31 31" fill="none" xmlns="http://www.w3.org/2000/svg">
<path d="M5.61865 10.3354C7.62275 10.3354 9.25147 11.9641 9.25147 13.9682V27.3672C9.25147 29.3713 7.62275 31 5.61865 31C3.61455 31 1.98584 29.3713 1.98584 27.3672V13.9682C1.98584 11.958 3.6085 10.3354 5.61865 10.3354ZM15.4999 0C17.504 0 19.1327 1.62871 19.1327 3.63281V27.3672C19.1327 29.3713 17.504 31 15.4999 31C13.4958 31 11.8671 29.3713 11.8671 27.3672V3.63281C11.8671 1.62871 13.4958 0 15.4999 0ZM25.3812 20.6646C27.3853 20.6646 29.014 22.2934 29.014 24.2975V27.3672C29.014 29.3713 27.3853 31 25.3812 31C23.3771 31 21.7483 29.3713 21.7483 27.3672V24.2975C21.7483 22.2934 23.3771 20.6646 25.3812 20.6646Z" fill="#FF5A5E"/>
</svg>
