<svg width="29" height="31" viewBox="0 0 29 31" fill="none" xmlns="http://www.w3.org/2000/svg">
<path d="M4.61865 10.3354C6.62275 10.3354 8.25147 11.9641 8.25147 13.9682V27.3672C8.25147 29.3713 6.62275 31 4.61865 31C2.61455 31 0.98584 29.3713 0.98584 27.3672V13.9682C0.98584 11.958 2.6085 10.3354 4.61865 10.3354ZM14.4999 0C16.504 0 18.1327 1.62871 18.1327 3.63281V27.3672C18.1327 29.3713 16.504 31 14.4999 31C12.4958 31 10.8671 29.3713 10.8671 27.3672V3.63281C10.8671 1.62871 12.4958 0 14.4999 0ZM24.3812 20.6646C26.3853 20.6646 28.014 22.2934 28.014 24.2975V27.3672C28.014 29.3713 26.3853 31 24.3812 31C22.3771 31 20.7483 29.3713 20.7483 27.3672V24.2975C20.7483 22.2934 22.3771 20.6646 24.3812 20.6646Z" fill="#E22400"/>
</svg>
