<svg width="65" height="65" viewBox="0 0 65 65" fill="none" xmlns="http://www.w3.org/2000/svg">
<path d="M20.2712 2.37833C16.2436 4.01078 12.5868 6.43902 9.51951 9.51771C6.49695 12.5326 4.09997 16.115 2.4663 20.0591C0.832629 24.0033 -0.00551587 28.2314 2.73165e-05 32.5004C2.73165e-05 36.7208 0.801176 40.8362 2.38012 44.7287C4.01236 48.7565 6.44062 52.4134 9.51951 55.4805C12.5861 58.56 16.2432 60.9883 20.2712 62.6199C24.1554 64.1976 28.309 65.0057 32.5013 64.9991C36.77 65.0041 40.9976 64.1658 44.9414 62.5323C48.8851 60.8988 52.4673 58.5023 55.4823 55.4805C58.5621 52.4142 60.9906 48.7571 62.6217 44.7287C64.1984 40.845 65.0061 36.692 65 32.5004C65 28.2791 64.1997 24.1638 62.6217 20.2695C60.987 16.2386 58.5836 12.619 55.4823 9.51771C52.381 6.4164 48.765 4.01296 44.7305 2.37833C40.8463 0.802119 36.6932 -0.00556798 32.5013 2.88893e-05C28.28 2.88893e-05 24.1656 0.800279 20.2712 2.37833ZM8.12289 46.1819C6.55741 45.1994 5.11499 44.0677 3.83782 42.7349C1.8943 37.2528 1.55131 31.3308 2.84896 25.661C3.45683 24.4602 4.1527 23.3059 4.93086 22.2077C5.17247 21.8673 5.39611 21.5125 5.65477 21.182L12.9891 25.5218V25.7059C12.9727 29.643 13.3679 33.571 14.1683 37.4259C14.171 37.4439 14.1737 37.4537 14.1773 37.4699L8.48933 46.3885C8.36402 46.3254 8.24174 46.2565 8.12289 46.1819ZM29.9299 61.2592C31.1881 61.902 32.4933 62.4485 33.8342 62.8938C28.0703 63.15 22.352 61.765 17.3442 58.8997L29.6389 61.0903C29.7332 61.1505 29.8294 61.208 29.9299 61.2592ZM29.885 59.0398L15.3763 56.4541C13.6788 54.3928 12.152 52.2121 10.8398 49.8814C10.5057 49.2886 10.1329 48.7129 9.85003 48.0941L15.5326 39.1845C15.6584 39.2159 15.7985 39.2491 15.9574 39.2913C19.5123 40.2425 23.1301 40.9188 26.7729 41.4487C26.9858 41.4783 27.1636 41.5044 27.3154 41.5206L34.127 53.298C32.9467 54.9616 31.747 56.6113 30.5281 58.2468C30.3251 58.5189 30.1096 58.7803 29.885 59.0398ZM54.0237 54.0228C52.8873 55.1607 51.6619 56.2062 50.3592 57.1492C50.1471 55.4536 49.7795 53.7811 49.2608 52.1528L56.5286 38.5944C58.5306 37.6828 60.4616 36.649 62.2543 35.3673C62.4887 35.2012 62.6836 35.0153 62.8345 34.8123C62.3082 41.8187 59.3713 48.6761 54.0237 54.0228ZM53.7013 36.4388C53.9716 36.9544 54.2383 37.4753 54.506 38.0034L47.4861 51.0984C47.4456 51.1074 47.407 51.1164 47.3666 51.1218C43.5818 51.8341 39.7404 52.2036 35.8892 52.2256L28.8836 40.1123C29.9736 38.0871 31.0544 36.0569 32.1259 34.0219C32.8534 32.6424 33.5683 31.2538 34.2824 29.8662L48.7812 28.377C50.5568 30.9817 52.2391 33.642 53.7013 36.4388ZM50.7598 20.9062C50.0718 22.7232 49.3354 24.5213 48.6034 26.323L34.4791 27.7735C34.311 27.5501 34.1348 27.3329 33.951 27.1223C32.2831 25.2335 30.6045 23.3564 28.9285 21.4739C28.9438 21.455 28.959 21.4406 28.9743 21.4236C28.298 20.7482 27.6199 20.0728 26.9436 19.3956L30.8757 7.55705C31.1445 7.4825 31.4187 7.42846 31.6957 7.39539C33.8333 7.17804 35.9736 6.93194 38.1166 6.808C39.4288 6.73435 40.7481 6.69214 42.0828 6.78644L51.8115 17.7519C51.4765 18.81 51.1496 19.8707 50.7598 20.9062ZM54.0237 10.9763C56.6323 13.5802 58.744 16.6382 60.255 20C58.4369 18.7563 56.4909 17.7106 54.4503 16.8807C54.1288 16.7507 53.8036 16.6303 53.4749 16.5197L43.8989 5.72663C43.9653 5.26049 44.0003 4.79345 44.0147 4.32282C47.7619 5.84992 51.1652 8.11227 54.0237 10.9763ZM22.7537 3.75609C22.7915 3.78393 22.8094 3.80728 22.831 3.81357C25.0198 4.56981 27.011 5.68351 28.8881 7.00469L25.2147 18.0672C25.196 18.0721 25.1777 18.0784 25.1599 18.0861C24.4081 18.3968 23.642 18.6752 22.9019 19.012C19.8527 20.3979 16.8798 21.9328 14.0794 23.7731L6.83045 19.4845C6.83837 19.2589 6.88109 19.0359 6.95709 18.8234C7.44389 17.5265 7.9226 16.2224 8.47316 14.9515C8.89871 13.9763 9.37755 13.0252 9.90751 12.1026C13.4085 8.21457 17.8578 5.30076 22.8211 3.64562C22.7986 3.68064 22.7753 3.71747 22.7537 3.75609Z" fill="#8C8C8C"/>
</svg>
