<svg width="12" height="13" viewBox="0 0 12 13" fill="none" xmlns="http://www.w3.org/2000/svg">
<path d="M6.40037 0.820076C6.26704 0.820076 6.13371 0.820076 6.00037 0.820076V0.0600758H6.44037L6.40037 0.820076ZM7.88037 1.18008C7.64037 1.07341 7.40037 0.993409 7.16037 0.940076L7.32037 0.220076C7.61371 0.273409 7.89371 0.353409 8.16037 0.460076L7.88037 1.18008ZM8.92037 1.70008C8.81371 1.62008 8.70704 1.55341 8.60037 1.50008L8.96037 0.820076C9.22704 0.980076 9.46704 1.15341 9.68037 1.34008L9.24037 1.94007L8.92037 1.70008ZM10.2804 3.02007C10.147 2.83341 9.98704 2.63341 9.80037 2.42008L10.3604 1.94007C10.547 2.15341 10.7337 2.38008 10.9204 2.62008L10.2804 3.02007ZM10.8404 4.06008C10.787 3.92674 10.7337 3.80674 10.6804 3.70008L11.3604 3.38008C11.4937 3.62008 11.6004 3.88674 11.6804 4.18008L11.0004 4.42008L10.8404 4.06008ZM11.2404 5.94008C11.2404 5.67341 11.2137 5.42008 11.1604 5.18008L11.9204 5.02008C11.9737 5.31341 12.0004 5.60674 12.0004 5.90008L11.2404 5.94008ZM11.1604 7.10008C11.187 6.96674 11.2004 6.83341 11.2004 6.70008L11.9604 6.78008C11.9337 7.07341 11.8804 7.36674 11.8004 7.66008L11.0404 7.46008L11.1604 7.10008ZM10.4404 8.86008C10.5737 8.64674 10.6937 8.42008 10.8004 8.18008L11.4804 8.50008C11.3737 8.76674 11.2404 9.02008 11.0804 9.26008L10.4404 8.86008ZM9.72037 9.78008C9.80037 9.67341 9.88037 9.58008 9.96037 9.50008L10.5604 9.98008L10.2404 10.3001L9.72037 9.78008ZM6.00037 0.820076C5.22704 0.820076 4.48704 0.980076 3.78038 1.30008C3.07371 1.62008 2.47371 2.08008 1.98038 2.68008C1.48704 3.28008 1.14038 3.95341 0.940375 4.70008C0.740375 5.44674 0.707042 6.20008 0.840375 6.96008C0.973708 7.72008 1.26038 8.42008 1.70038 9.06008C2.14037 9.70008 2.70038 10.2134 3.38037 10.6001C4.06037 10.9867 4.78704 11.2134 5.56037 11.2801C6.33371 11.3467 7.08037 11.2534 7.80037 11.0001C8.52037 10.7467 9.16037 10.3401 9.72037 9.78008L10.2404 10.3001C9.60037 10.9401 8.86704 11.4067 8.04037 11.7001C7.21371 11.9934 6.36037 12.1067 5.48037 12.0401C4.60037 11.9734 3.77371 11.7134 3.00038 11.2601C2.22704 10.8067 1.58704 10.2201 1.08037 9.50008C0.573708 8.78008 0.240375 7.98674 0.080375 7.12008C-0.079625 6.25341 -0.039625 5.38674 0.200375 4.52008C0.440375 3.65341 0.847042 2.88008 1.42037 2.20008C1.99371 1.52007 2.67371 0.993409 3.46038 0.620076C4.24704 0.246742 5.09371 0.0600758 6.00037 0.0600758V0.820076ZM5.64037 2.30008C5.74704 2.30008 5.83371 2.34008 5.90037 2.42008C5.96704 2.50008 6.00037 2.59341 6.00037 2.70008V6.58008L8.44037 7.98008C8.52037 8.03341 8.57371 8.10674 8.60037 8.20008C8.62704 8.29341 8.61371 8.38674 8.56037 8.48008C8.50704 8.57341 8.43371 8.63341 8.34037 8.66008C8.24704 8.68674 8.16037 8.67341 8.08037 8.62008L5.44037 7.14008C5.30704 7.06008 5.24037 6.95341 5.24037 6.82008V2.70008C5.24037 2.59341 5.28037 2.50008 5.36037 2.42008C5.44037 2.34008 5.53371 2.30008 5.64037 2.30008Z" fill="#212529" fill-opacity="0.75"/>
</svg>
