<svg width="34" height="34" viewBox="0 0 34 34" fill="none" xmlns="http://www.w3.org/2000/svg">
<circle cx="17" cy="17" r="17" fill="#F7F7FA"/>
<path d="M24.7808 11.7498C24.1713 12.0269 23.5142 12.209 22.8333 12.2961C23.53 11.8765 24.0683 11.2115 24.3217 10.4119C23.6646 10.8078 22.9363 11.0848 22.1683 11.2432C21.5429 10.5623 20.6642 10.1665 19.6667 10.1665C17.8063 10.1665 16.2863 11.6865 16.2863 13.5628C16.2863 13.8319 16.3179 14.0932 16.3733 14.3386C13.555 14.1961 11.0454 12.8423 9.37501 10.7919C9.08209 11.2907 8.91584 11.8765 8.91584 12.494C8.91584 13.6736 9.50959 14.7186 10.4279 15.3123C9.86584 15.3123 9.34334 15.154 8.88418 14.9165V14.9403C8.88418 16.5869 10.0558 17.9644 11.6075 18.2732C11.1094 18.4101 10.5863 18.4291 10.0796 18.3286C10.2946 19.0035 10.7157 19.594 11.2837 20.0172C11.8517 20.4403 12.5381 20.6748 13.2463 20.6878C12.0458 21.6382 10.5578 22.1519 9.02668 22.1444C8.75751 22.1444 8.48834 22.1286 8.21918 22.0969C9.72334 23.0628 11.5125 23.6248 13.4283 23.6248C19.6667 23.6248 23.0946 18.4473 23.0946 13.9586C23.0946 13.8082 23.0946 13.6657 23.0867 13.5153C23.7517 13.0403 24.3217 12.4386 24.7808 11.7498Z" fill="#28292E"/>
</svg>
